<svg xmlns="http://www.w3.org/2000/svg" xmlns:xlink="http://www.w3.org/1999/xlink" width="500" zoomAndPan="magnify" viewBox="0 0 375 374.999991" height="500" preserveAspectRatio="xMidYMid meet" version="1.0"><defs><clipPath id="18e7b0f0f8"><path d="M 51 71 L 67 71 L 67 101 L 51 101 Z M 51 71 " clip-rule="nonzero"/></clipPath><clipPath id="c6ecbd88e4"><path d="M 12.523438 73.699219 L 109.429688 62.96875 L 135.84375 301.511719 L 38.9375 312.242188 Z M 12.523438 73.699219 " clip-rule="nonzero"/></clipPath><clipPath id="49004461a3"><path d="M 12.523438 73.699219 L 109.429688 62.96875 L 135.84375 301.511719 L 38.9375 312.242188 Z M 12.523438 73.699219 " clip-rule="nonzero"/></clipPath><clipPath id="e7dc028ccf"><path d="M 70 96 L 100 96 L 100 107 L 70 107 Z M 70 96 " clip-rule="nonzero"/></clipPath><clipPath id="39ac7770d1"><path d="M 12.523438 73.699219 L 109.429688 62.96875 L 135.84375 301.511719 L 38.9375 312.242188 Z M 12.523438 73.699219 " clip-rule="nonzero"/></clipPath><clipPath id="33d738689f"><path d="M 12.523438 73.699219 L 109.429688 62.96875 L 135.84375 301.511719 L 38.9375 312.242188 Z M 12.523438 73.699219 " clip-rule="nonzero"/></clipPath><clipPath id="81ae558c2a"><path d="M 43 87 L 60 87 L 60 116 L 43 116 Z M 43 87 " clip-rule="nonzero"/></clipPath><clipPath id="779f0ba833"><path d="M 12.523438 73.699219 L 109.429688 62.96875 L 135.84375 301.511719 L 38.9375 312.242188 Z M 12.523438 73.699219 " clip-rule="nonzero"/></clipPath><clipPath id="a88737d5a7"><path d="M 12.523438 73.699219 L 109.429688 62.96875 L 135.84375 301.511719 L 38.9375 312.242188 Z M 12.523438 73.699219 " clip-rule="nonzero"/></clipPath><clipPath id="b66d07fbcc"><path d="M 64 108 L 94 108 L 94 120 L 64 120 Z M 64 108 " clip-rule="nonzero"/></clipPath><clipPath id="11215a0711"><path d="M 12.523438 73.699219 L 109.429688 62.96875 L 135.84375 301.511719 L 38.9375 312.242188 Z M 12.523438 73.699219 " clip-rule="nonzero"/></clipPath><clipPath id="114577705e"><path d="M 12.523438 73.699219 L 109.429688 62.96875 L 135.84375 301.511719 L 38.9375 312.242188 Z M 12.523438 73.699219 " clip-rule="nonzero"/></clipPath><clipPath id="eb6829253f"><path d="M 35 104 L 55 104 L 55 131 L 35 131 Z M 35 104 " clip-rule="nonzero"/></clipPath><clipPath id="0800f8e43a"><path d="M 12.523438 73.699219 L 109.429688 62.96875 L 135.84375 301.511719 L 38.9375 312.242188 Z M 12.523438 73.699219 " clip-rule="nonzero"/></clipPath><clipPath id="745c35bc01"><path d="M 12.523438 73.699219 L 109.429688 62.96875 L 135.84375 301.511719 L 38.9375 312.242188 Z M 12.523438 73.699219 " clip-rule="nonzero"/></clipPath><clipPath id="252199688d"><path d="M 59 121 L 90 121 L 90 134 L 59 134 Z M 59 121 " clip-rule="nonzero"/></clipPath><clipPath id="71df1398be"><path d="M 12.523438 73.699219 L 109.429688 62.96875 L 135.84375 301.511719 L 38.9375 312.242188 Z M 12.523438 73.699219 " clip-rule="nonzero"/></clipPath><clipPath id="e9d094ee49"><path d="M 12.523438 73.699219 L 109.429688 62.96875 L 135.84375 301.511719 L 38.9375 312.242188 Z M 12.523438 73.699219 " clip-rule="nonzero"/></clipPath><clipPath id="a677af9f03"><path d="M 29 122 L 53 122 L 53 148 L 29 148 Z M 29 122 " clip-rule="nonzero"/></clipPath><clipPath id="f3a41b994d"><path d="M 12.523438 73.699219 L 109.429688 62.96875 L 135.84375 301.511719 L 38.9375 312.242188 Z M 12.523438 73.699219 " clip-rule="nonzero"/></clipPath><clipPath id="0fb22a347d"><path d="M 12.523438 73.699219 L 109.429688 62.96875 L 135.84375 301.511719 L 38.9375 312.242188 Z M 12.523438 73.699219 " clip-rule="nonzero"/></clipPath><clipPath id="3c630b8290"><path d="M 57 134 L 87 134 L 87 149 L 57 149 Z M 57 134 " clip-rule="nonzero"/></clipPath><clipPath id="9cb63fe095"><path d="M 12.523438 73.699219 L 109.429688 62.96875 L 135.84375 301.511719 L 38.9375 312.242188 Z M 12.523438 73.699219 " clip-rule="nonzero"/></clipPath><clipPath id="8e1f22a955"><path d="M 12.523438 73.699219 L 109.429688 62.96875 L 135.84375 301.511719 L 38.9375 312.242188 Z M 12.523438 73.699219 " clip-rule="nonzero"/></clipPath><clipPath id="0beec0d543"><path d="M 25 142 L 52 142 L 52 165 L 25 165 Z M 25 142 " clip-rule="nonzero"/></clipPath><clipPath id="5c35cbd76a"><path d="M 12.523438 73.699219 L 109.429688 62.96875 L 135.84375 301.511719 L 38.9375 312.242188 Z M 12.523438 73.699219 " clip-rule="nonzero"/></clipPath><clipPath id="3219328578"><path d="M 12.523438 73.699219 L 109.429688 62.96875 L 135.84375 301.511719 L 38.9375 312.242188 Z M 12.523438 73.699219 " clip-rule="nonzero"/></clipPath><clipPath id="9984241915"><path d="M 56 148 L 85 148 L 85 165 L 56 165 Z M 56 148 " clip-rule="nonzero"/></clipPath><clipPath id="6552dc7204"><path d="M 12.523438 73.699219 L 109.429688 62.96875 L 135.84375 301.511719 L 38.9375 312.242188 Z M 12.523438 73.699219 " clip-rule="nonzero"/></clipPath><clipPath id="e9cd765fdb"><path d="M 12.523438 73.699219 L 109.429688 62.96875 L 135.84375 301.511719 L 38.9375 312.242188 Z M 12.523438 73.699219 " clip-rule="nonzero"/></clipPath><clipPath id="007445d7ea"><path d="M 23 161 L 53 161 L 53 183 L 23 183 Z M 23 161 " clip-rule="nonzero"/></clipPath><clipPath id="79cac07397"><path d="M 12.523438 73.699219 L 109.429688 62.96875 L 135.84375 301.511719 L 38.9375 312.242188 Z M 12.523438 73.699219 " clip-rule="nonzero"/></clipPath><clipPath id="b45ed6df24"><path d="M 12.523438 73.699219 L 109.429688 62.96875 L 135.84375 301.511719 L 38.9375 312.242188 Z M 12.523438 73.699219 " clip-rule="nonzero"/></clipPath><clipPath id="8ccf2f8588"><path d="M 58 161 L 85 161 L 85 181 L 58 181 Z M 58 161 " clip-rule="nonzero"/></clipPath><clipPath id="357b53acda"><path d="M 12.523438 73.699219 L 109.429688 62.96875 L 135.84375 301.511719 L 38.9375 312.242188 Z M 12.523438 73.699219 " clip-rule="nonzero"/></clipPath><clipPath id="18c7a77939"><path d="M 12.523438 73.699219 L 109.429688 62.96875 L 135.84375 301.511719 L 38.9375 312.242188 Z M 12.523438 73.699219 " clip-rule="nonzero"/></clipPath><clipPath id="a846542597"><path d="M 24 181 L 57 181 L 57 201 L 24 201 Z M 24 181 " clip-rule="nonzero"/></clipPath><clipPath id="48992246ff"><path d="M 12.523438 73.699219 L 109.429688 62.96875 L 135.84375 301.511719 L 38.9375 312.242188 Z M 12.523438 73.699219 " clip-rule="nonzero"/></clipPath><clipPath id="884cdc6109"><path d="M 12.523438 73.699219 L 109.429688 62.96875 L 135.84375 301.511719 L 38.9375 312.242188 Z M 12.523438 73.699219 " clip-rule="nonzero"/></clipPath><clipPath id="520cce2b1e"><path d="M 61 175 L 86 175 L 86 198 L 61 198 Z M 61 175 " clip-rule="nonzero"/></clipPath><clipPath id="fc8e5352d4"><path d="M 12.523438 73.699219 L 109.429688 62.96875 L 135.84375 301.511719 L 38.9375 312.242188 Z M 12.523438 73.699219 " clip-rule="nonzero"/></clipPath><clipPath id="06e72624e2"><path d="M 12.523438 73.699219 L 109.429688 62.96875 L 135.84375 301.511719 L 38.9375 312.242188 Z M 12.523438 73.699219 " clip-rule="nonzero"/></clipPath><clipPath id="eeea7142ac"><path d="M 27 201 L 62 201 L 62 219 L 27 219 Z M 27 201 " clip-rule="nonzero"/></clipPath><clipPath id="677dc614d4"><path d="M 12.523438 73.699219 L 109.429688 62.96875 L 135.84375 301.511719 L 38.9375 312.242188 Z M 12.523438 73.699219 " clip-rule="nonzero"/></clipPath><clipPath id="8a00770199"><path d="M 12.523438 73.699219 L 109.429688 62.96875 L 135.84375 301.511719 L 38.9375 312.242188 Z M 12.523438 73.699219 " clip-rule="nonzero"/></clipPath><clipPath id="5dbe2e1fe0"><path d="M 66 188 L 89 188 L 89 214 L 66 214 Z M 66 188 " clip-rule="nonzero"/></clipPath><clipPath id="cb2fd77db0"><path d="M 12.523438 73.699219 L 109.429688 62.96875 L 135.84375 301.511719 L 38.9375 312.242188 Z M 12.523438 73.699219 " clip-rule="nonzero"/></clipPath><clipPath id="c62520b835"><path d="M 12.523438 73.699219 L 109.429688 62.96875 L 135.84375 301.511719 L 38.9375 312.242188 Z M 12.523438 73.699219 " clip-rule="nonzero"/></clipPath><clipPath id="3d214d30fc"><path d="M 33 221 L 69 221 L 69 238 L 33 238 Z M 33 221 " clip-rule="nonzero"/></clipPath><clipPath id="59a62ac033"><path d="M 12.523438 73.699219 L 109.429688 62.96875 L 135.84375 301.511719 L 38.9375 312.242188 Z M 12.523438 73.699219 " clip-rule="nonzero"/></clipPath><clipPath id="0960b02afe"><path d="M 12.523438 73.699219 L 109.429688 62.96875 L 135.84375 301.511719 L 38.9375 312.242188 Z M 12.523438 73.699219 " clip-rule="nonzero"/></clipPath><clipPath id="399d089144"><path d="M 73 201 L 94 201 L 94 230 L 73 230 Z M 73 201 " clip-rule="nonzero"/></clipPath><clipPath id="9b56f00217"><path d="M 12.523438 73.699219 L 109.429688 62.96875 L 135.84375 301.511719 L 38.9375 312.242188 Z M 12.523438 73.699219 " clip-rule="nonzero"/></clipPath><clipPath id="f097ebf3ce"><path d="M 12.523438 73.699219 L 109.429688 62.96875 L 135.84375 301.511719 L 38.9375 312.242188 Z M 12.523438 73.699219 " clip-rule="nonzero"/></clipPath><clipPath id="0c9876e898"><path d="M 41 239 L 79 239 L 79 255 L 41 255 Z M 41 239 " clip-rule="nonzero"/></clipPath><clipPath id="8d389c1b5b"><path d="M 12.523438 73.699219 L 109.429688 62.96875 L 135.84375 301.511719 L 38.9375 312.242188 Z M 12.523438 73.699219 " clip-rule="nonzero"/></clipPath><clipPath id="ed49aec5c9"><path d="M 12.523438 73.699219 L 109.429688 62.96875 L 135.84375 301.511719 L 38.9375 312.242188 Z M 12.523438 73.699219 " clip-rule="nonzero"/></clipPath><clipPath id="85920a1b3b"><path d="M 82 214 L 100 214 L 100 246 L 82 246 Z M 82 214 " clip-rule="nonzero"/></clipPath><clipPath id="07f9213dc0"><path d="M 12.523438 73.699219 L 109.429688 62.96875 L 135.84375 301.511719 L 38.9375 312.242188 Z M 12.523438 73.699219 " clip-rule="nonzero"/></clipPath><clipPath id="a50f83387f"><path d="M 12.523438 73.699219 L 109.429688 62.96875 L 135.84375 301.511719 L 38.9375 312.242188 Z M 12.523438 73.699219 " clip-rule="nonzero"/></clipPath><clipPath id="569ca1805b"><path d="M 51 257 L 90 257 L 90 272 L 51 272 Z M 51 257 " clip-rule="nonzero"/></clipPath><clipPath id="0521b48f13"><path d="M 12.523438 73.699219 L 109.429688 62.96875 L 135.84375 301.511719 L 38.9375 312.242188 Z M 12.523438 73.699219 " clip-rule="nonzero"/></clipPath><clipPath id="273ec70be0"><path d="M 12.523438 73.699219 L 109.429688 62.96875 L 135.84375 301.511719 L 38.9375 312.242188 Z M 12.523438 73.699219 " clip-rule="nonzero"/></clipPath><clipPath id="020ad56aa9"><path d="M 92 226 L 109 226 L 109 260 L 92 260 Z M 92 226 " clip-rule="nonzero"/></clipPath><clipPath id="50c1dc44d9"><path d="M 12.523438 73.699219 L 109.429688 62.96875 L 135.84375 301.511719 L 38.9375 312.242188 Z M 12.523438 73.699219 " clip-rule="nonzero"/></clipPath><clipPath id="b0e3498ada"><path d="M 12.523438 73.699219 L 109.429688 62.96875 L 135.84375 301.511719 L 38.9375 312.242188 Z M 12.523438 73.699219 " clip-rule="nonzero"/></clipPath><clipPath id="1bc1178ce5"><path d="M 64 273 L 103 273 L 103 289 L 64 289 Z M 64 273 " clip-rule="nonzero"/></clipPath><clipPath id="90cd35e8ab"><path d="M 12.523438 73.699219 L 109.429688 62.96875 L 135.84375 301.511719 L 38.9375 312.242188 Z M 12.523438 73.699219 " clip-rule="nonzero"/></clipPath><clipPath id="b30d01941e"><path d="M 12.523438 73.699219 L 109.429688 62.96875 L 135.84375 301.511719 L 38.9375 312.242188 Z M 12.523438 73.699219 " clip-rule="nonzero"/></clipPath><clipPath id="dbd598543f"><path d="M 104 238 L 120 238 L 120 274 L 104 274 Z M 104 238 " clip-rule="nonzero"/></clipPath><clipPath id="9a6fbb0b0f"><path d="M 12.523438 73.699219 L 109.429688 62.96875 L 135.84375 301.511719 L 38.9375 312.242188 Z M 12.523438 73.699219 " clip-rule="nonzero"/></clipPath><clipPath id="dc4d135926"><path d="M 12.523438 73.699219 L 109.429688 62.96875 L 135.84375 301.511719 L 38.9375 312.242188 Z M 12.523438 73.699219 " clip-rule="nonzero"/></clipPath><clipPath id="5f402b447c"><path d="M 78 288 L 118 288 L 118 304 L 78 304 Z M 78 288 " clip-rule="nonzero"/></clipPath><clipPath id="65be171f28"><path d="M 12.523438 73.699219 L 109.429688 62.96875 L 135.84375 301.511719 L 38.9375 312.242188 Z M 12.523438 73.699219 " clip-rule="nonzero"/></clipPath><clipPath id="1bf038f7b3"><path d="M 12.523438 73.699219 L 109.429688 62.96875 L 135.84375 301.511719 L 38.9375 312.242188 Z M 12.523438 73.699219 " clip-rule="nonzero"/></clipPath><clipPath id="93c0773084"><path d="M 117 250 L 132 250 L 132 287 L 117 287 Z M 117 250 " clip-rule="nonzero"/></clipPath><clipPath id="70bfd78c6b"><path d="M 12.523438 73.699219 L 109.429688 62.96875 L 135.84375 301.511719 L 38.9375 312.242188 Z M 12.523438 73.699219 " clip-rule="nonzero"/></clipPath><clipPath id="f61d05f425"><path d="M 12.523438 73.699219 L 109.429688 62.96875 L 135.84375 301.511719 L 38.9375 312.242188 Z M 12.523438 73.699219 " clip-rule="nonzero"/></clipPath><clipPath id="d9caf8c813"><path d="M 53 65 L 135 65 L 135 302 L 53 302 Z M 53 65 " clip-rule="nonzero"/></clipPath><clipPath id="38412ba5fa"><path d="M 12.523438 73.699219 L 109.429688 62.96875 L 135.84375 301.511719 L 38.9375 312.242188 Z M 12.523438 73.699219 " clip-rule="nonzero"/></clipPath><clipPath id="8d7c6e7436"><path d="M 12.523438 73.699219 L 109.429688 62.96875 L 135.84375 301.511719 L 38.9375 312.242188 Z M 12.523438 73.699219 " clip-rule="nonzero"/></clipPath><clipPath id="f3b05e2e8d"><path d="M 308 71 L 324 71 L 324 101 L 308 101 Z M 308 71 " clip-rule="nonzero"/></clipPath><clipPath id="448866a5f2"><path d="M 265.191406 63.121094 L 362.152344 73.347656 L 336.980469 312.023438 L 240.015625 301.796875 Z M 265.191406 63.121094 " clip-rule="nonzero"/></clipPath><clipPath id="d2dd67e02f"><path d="M 362.46875 73.378906 L 265.503906 63.152344 L 240.332031 301.828125 L 337.292969 312.054688 Z M 362.46875 73.378906 " clip-rule="nonzero"/></clipPath><clipPath id="24ddc6910c"><path d="M 275 96 L 306 96 L 306 107 L 275 107 Z M 275 96 " clip-rule="nonzero"/></clipPath><clipPath id="881f8d12ed"><path d="M 265.191406 63.121094 L 362.152344 73.347656 L 336.980469 312.023438 L 240.015625 301.796875 Z M 265.191406 63.121094 " clip-rule="nonzero"/></clipPath><clipPath id="dedade268d"><path d="M 362.46875 73.378906 L 265.503906 63.152344 L 240.332031 301.828125 L 337.292969 312.054688 Z M 362.46875 73.378906 " clip-rule="nonzero"/></clipPath><clipPath id="68c32350d3"><path d="M 315 87 L 333 87 L 333 116 L 315 116 Z M 315 87 " clip-rule="nonzero"/></clipPath><clipPath id="8a7a05bc9c"><path d="M 265.191406 63.121094 L 362.152344 73.347656 L 336.980469 312.023438 L 240.015625 301.796875 Z M 265.191406 63.121094 " clip-rule="nonzero"/></clipPath><clipPath id="c64b5017c8"><path d="M 362.46875 73.378906 L 265.503906 63.152344 L 240.332031 301.828125 L 337.292969 312.054688 Z M 362.46875 73.378906 " clip-rule="nonzero"/></clipPath><clipPath id="b84be37cb1"><path d="M 281 108 L 311 108 L 311 120 L 281 120 Z M 281 108 " clip-rule="nonzero"/></clipPath><clipPath id="a23973d9cd"><path d="M 265.191406 63.121094 L 362.152344 73.347656 L 336.980469 312.023438 L 240.015625 301.796875 Z M 265.191406 63.121094 " clip-rule="nonzero"/></clipPath><clipPath id="59158b3ee1"><path d="M 362.46875 73.378906 L 265.503906 63.152344 L 240.332031 301.828125 L 337.292969 312.054688 Z M 362.46875 73.378906 " clip-rule="nonzero"/></clipPath><clipPath id="e9aa3b6edc"><path d="M 320 104 L 340 104 L 340 131 L 320 131 Z M 320 104 " clip-rule="nonzero"/></clipPath><clipPath id="c0d38e44b1"><path d="M 265.191406 63.121094 L 362.152344 73.347656 L 336.980469 312.023438 L 240.015625 301.796875 Z M 265.191406 63.121094 " clip-rule="nonzero"/></clipPath><clipPath id="b7c7020a73"><path d="M 362.46875 73.378906 L 265.503906 63.152344 L 240.332031 301.828125 L 337.292969 312.054688 Z M 362.46875 73.378906 " clip-rule="nonzero"/></clipPath><clipPath id="63c018f88a"><path d="M 286 121 L 316 121 L 316 134 L 286 134 Z M 286 121 " clip-rule="nonzero"/></clipPath><clipPath id="e1287e5328"><path d="M 265.191406 63.121094 L 362.152344 73.347656 L 336.980469 312.023438 L 240.015625 301.796875 Z M 265.191406 63.121094 " clip-rule="nonzero"/></clipPath><clipPath id="0d1f92358a"><path d="M 362.46875 73.378906 L 265.503906 63.152344 L 240.332031 301.828125 L 337.292969 312.054688 Z M 362.46875 73.378906 " clip-rule="nonzero"/></clipPath><clipPath id="3b1ddebfcc"><path d="M 323 122 L 346 122 L 346 148 L 323 148 Z M 323 122 " clip-rule="nonzero"/></clipPath><clipPath id="4a97b1ea15"><path d="M 265.191406 63.121094 L 362.152344 73.347656 L 336.980469 312.023438 L 240.015625 301.796875 Z M 265.191406 63.121094 " clip-rule="nonzero"/></clipPath><clipPath id="836c22d33b"><path d="M 362.46875 73.378906 L 265.503906 63.152344 L 240.332031 301.828125 L 337.292969 312.054688 Z M 362.46875 73.378906 " clip-rule="nonzero"/></clipPath><clipPath id="f53fdc318a"><path d="M 289 134 L 318 134 L 318 149 L 289 149 Z M 289 134 " clip-rule="nonzero"/></clipPath><clipPath id="8bb2ceb269"><path d="M 265.191406 63.121094 L 362.152344 73.347656 L 336.980469 312.023438 L 240.015625 301.796875 Z M 265.191406 63.121094 " clip-rule="nonzero"/></clipPath><clipPath id="802a63c5a5"><path d="M 362.46875 73.378906 L 265.503906 63.152344 L 240.332031 301.828125 L 337.292969 312.054688 Z M 362.46875 73.378906 " clip-rule="nonzero"/></clipPath><clipPath id="09d7eb1843"><path d="M 323 141 L 350 141 L 350 165 L 323 165 Z M 323 141 " clip-rule="nonzero"/></clipPath><clipPath id="a3131d6b2a"><path d="M 265.191406 63.121094 L 362.152344 73.347656 L 336.980469 312.023438 L 240.015625 301.796875 Z M 265.191406 63.121094 " clip-rule="nonzero"/></clipPath><clipPath id="649f7f06fd"><path d="M 362.46875 73.378906 L 265.503906 63.152344 L 240.332031 301.828125 L 337.292969 312.054688 Z M 362.46875 73.378906 " clip-rule="nonzero"/></clipPath><clipPath id="11d949a3dd"><path d="M 290 148 L 319 148 L 319 165 L 290 165 Z M 290 148 " clip-rule="nonzero"/></clipPath><clipPath id="9fa701e4d0"><path d="M 265.191406 63.121094 L 362.152344 73.347656 L 336.980469 312.023438 L 240.015625 301.796875 Z M 265.191406 63.121094 " clip-rule="nonzero"/></clipPath><clipPath id="cf39c54380"><path d="M 362.46875 73.378906 L 265.503906 63.152344 L 240.332031 301.828125 L 337.292969 312.054688 Z M 362.46875 73.378906 " clip-rule="nonzero"/></clipPath><clipPath id="63d293820b"><path d="M 322 161 L 352 161 L 352 183 L 322 183 Z M 322 161 " clip-rule="nonzero"/></clipPath><clipPath id="0aa7e3c697"><path d="M 265.191406 63.121094 L 362.152344 73.347656 L 336.980469 312.023438 L 240.015625 301.796875 Z M 265.191406 63.121094 " clip-rule="nonzero"/></clipPath><clipPath id="463c8e1b05"><path d="M 362.46875 73.378906 L 265.503906 63.152344 L 240.332031 301.828125 L 337.292969 312.054688 Z M 362.46875 73.378906 " clip-rule="nonzero"/></clipPath><clipPath id="c54385f959"><path d="M 291 161 L 318 161 L 318 181 L 291 181 Z M 291 161 " clip-rule="nonzero"/></clipPath><clipPath id="20f81b0039"><path d="M 265.191406 63.121094 L 362.152344 73.347656 L 336.980469 312.023438 L 240.015625 301.796875 Z M 265.191406 63.121094 " clip-rule="nonzero"/></clipPath><clipPath id="1e34220370"><path d="M 362.46875 73.378906 L 265.503906 63.152344 L 240.332031 301.828125 L 337.292969 312.054688 Z M 362.46875 73.378906 " clip-rule="nonzero"/></clipPath><clipPath id="1d3c1a7fee"><path d="M 319 181 L 351 181 L 351 201 L 319 201 Z M 319 181 " clip-rule="nonzero"/></clipPath><clipPath id="eeb70a8e21"><path d="M 265.191406 63.121094 L 362.152344 73.347656 L 336.980469 312.023438 L 240.015625 301.796875 Z M 265.191406 63.121094 " clip-rule="nonzero"/></clipPath><clipPath id="0c4a6c2d16"><path d="M 362.46875 73.378906 L 265.503906 63.152344 L 240.332031 301.828125 L 337.292969 312.054688 Z M 362.46875 73.378906 " clip-rule="nonzero"/></clipPath><clipPath id="3d0c2907a1"><path d="M 289 175 L 315 175 L 315 198 L 289 198 Z M 289 175 " clip-rule="nonzero"/></clipPath><clipPath id="2db49041c3"><path d="M 265.191406 63.121094 L 362.152344 73.347656 L 336.980469 312.023438 L 240.015625 301.796875 Z M 265.191406 63.121094 " clip-rule="nonzero"/></clipPath><clipPath id="e23e15db87"><path d="M 362.46875 73.378906 L 265.503906 63.152344 L 240.332031 301.828125 L 337.292969 312.054688 Z M 362.46875 73.378906 " clip-rule="nonzero"/></clipPath><clipPath id="5c1412a6ac"><path d="M 314 201 L 349 201 L 349 219 L 314 219 Z M 314 201 " clip-rule="nonzero"/></clipPath><clipPath id="54c592d961"><path d="M 265.191406 63.121094 L 362.152344 73.347656 L 336.980469 312.023438 L 240.015625 301.796875 Z M 265.191406 63.121094 " clip-rule="nonzero"/></clipPath><clipPath id="5ab0b49b8d"><path d="M 362.46875 73.378906 L 265.503906 63.152344 L 240.332031 301.828125 L 337.292969 312.054688 Z M 362.46875 73.378906 " clip-rule="nonzero"/></clipPath><clipPath id="b934404347"><path d="M 286 188 L 310 188 L 310 214 L 286 214 Z M 286 188 " clip-rule="nonzero"/></clipPath><clipPath id="32c82c6cff"><path d="M 265.191406 63.121094 L 362.152344 73.347656 L 336.980469 312.023438 L 240.015625 301.796875 Z M 265.191406 63.121094 " clip-rule="nonzero"/></clipPath><clipPath id="1a8dc6c70b"><path d="M 362.46875 73.378906 L 265.503906 63.152344 L 240.332031 301.828125 L 337.292969 312.054688 Z M 362.46875 73.378906 " clip-rule="nonzero"/></clipPath><clipPath id="e724982ce7"><path d="M 306 220 L 343 220 L 343 237 L 306 237 Z M 306 220 " clip-rule="nonzero"/></clipPath><clipPath id="8362f57a7b"><path d="M 265.191406 63.121094 L 362.152344 73.347656 L 336.980469 312.023438 L 240.015625 301.796875 Z M 265.191406 63.121094 " clip-rule="nonzero"/></clipPath><clipPath id="2814f79b63"><path d="M 362.46875 73.378906 L 265.503906 63.152344 L 240.332031 301.828125 L 337.292969 312.054688 Z M 362.46875 73.378906 " clip-rule="nonzero"/></clipPath><clipPath id="ae3ed2626d"><path d="M 282 201 L 303 201 L 303 230 L 282 230 Z M 282 201 " clip-rule="nonzero"/></clipPath><clipPath id="cd5de75fe4"><path d="M 265.191406 63.121094 L 362.152344 73.347656 L 336.980469 312.023438 L 240.015625 301.796875 Z M 265.191406 63.121094 " clip-rule="nonzero"/></clipPath><clipPath id="d300961ea4"><path d="M 362.46875 73.378906 L 265.503906 63.152344 L 240.332031 301.828125 L 337.292969 312.054688 Z M 362.46875 73.378906 " clip-rule="nonzero"/></clipPath><clipPath id="54a57e701a"><path d="M 297 239 L 335 239 L 335 255 L 297 255 Z M 297 239 " clip-rule="nonzero"/></clipPath><clipPath id="79616e3a06"><path d="M 265.191406 63.121094 L 362.152344 73.347656 L 336.980469 312.023438 L 240.015625 301.796875 Z M 265.191406 63.121094 " clip-rule="nonzero"/></clipPath><clipPath id="352bf3c28d"><path d="M 362.46875 73.378906 L 265.503906 63.152344 L 240.332031 301.828125 L 337.292969 312.054688 Z M 362.46875 73.378906 " clip-rule="nonzero"/></clipPath><clipPath id="5fd7ca9d69"><path d="M 275 214 L 294 214 L 294 246 L 275 246 Z M 275 214 " clip-rule="nonzero"/></clipPath><clipPath id="7abf27379d"><path d="M 265.191406 63.121094 L 362.152344 73.347656 L 336.980469 312.023438 L 240.015625 301.796875 Z M 265.191406 63.121094 " clip-rule="nonzero"/></clipPath><clipPath id="e5d1af5cc8"><path d="M 362.46875 73.378906 L 265.503906 63.152344 L 240.332031 301.828125 L 337.292969 312.054688 Z M 362.46875 73.378906 " clip-rule="nonzero"/></clipPath><clipPath id="0cbb1f912b"><path d="M 286 257 L 325 257 L 325 272 L 286 272 Z M 286 257 " clip-rule="nonzero"/></clipPath><clipPath id="423599d360"><path d="M 265.191406 63.121094 L 362.152344 73.347656 L 336.980469 312.023438 L 240.015625 301.796875 Z M 265.191406 63.121094 " clip-rule="nonzero"/></clipPath><clipPath id="245682a43f"><path d="M 362.46875 73.378906 L 265.503906 63.152344 L 240.332031 301.828125 L 337.292969 312.054688 Z M 362.46875 73.378906 " clip-rule="nonzero"/></clipPath><clipPath id="41e6344903"><path d="M 267 226 L 284 226 L 284 261 L 267 261 Z M 267 226 " clip-rule="nonzero"/></clipPath><clipPath id="0a67932cba"><path d="M 265.191406 63.121094 L 362.152344 73.347656 L 336.980469 312.023438 L 240.015625 301.796875 Z M 265.191406 63.121094 " clip-rule="nonzero"/></clipPath><clipPath id="2352ab2e87"><path d="M 362.46875 73.378906 L 265.503906 63.152344 L 240.332031 301.828125 L 337.292969 312.054688 Z M 362.46875 73.378906 " clip-rule="nonzero"/></clipPath><clipPath id="e07eb28b72"><path d="M 273 273 L 312 273 L 312 289 L 273 289 Z M 273 273 " clip-rule="nonzero"/></clipPath><clipPath id="4d5432cc31"><path d="M 265.191406 63.121094 L 362.152344 73.347656 L 336.980469 312.023438 L 240.015625 301.796875 Z M 265.191406 63.121094 " clip-rule="nonzero"/></clipPath><clipPath id="17369bd30c"><path d="M 362.46875 73.378906 L 265.503906 63.152344 L 240.332031 301.828125 L 337.292969 312.054688 Z M 362.46875 73.378906 " clip-rule="nonzero"/></clipPath><clipPath id="3db2ccafdd"><path d="M 256 238 L 272 238 L 272 275 L 256 275 Z M 256 238 " clip-rule="nonzero"/></clipPath><clipPath id="0287206cac"><path d="M 265.191406 63.121094 L 362.152344 73.347656 L 336.980469 312.023438 L 240.015625 301.796875 Z M 265.191406 63.121094 " clip-rule="nonzero"/></clipPath><clipPath id="5d96203e89"><path d="M 362.46875 73.378906 L 265.503906 63.152344 L 240.332031 301.828125 L 337.292969 312.054688 Z M 362.46875 73.378906 " clip-rule="nonzero"/></clipPath><clipPath id="b77ca55e69"><path d="M 258 288 L 298 288 L 298 304 L 258 304 Z M 258 288 " clip-rule="nonzero"/></clipPath><clipPath id="e99e60936e"><path d="M 265.191406 63.121094 L 362.152344 73.347656 L 336.980469 312.023438 L 240.015625 301.796875 Z M 265.191406 63.121094 " clip-rule="nonzero"/></clipPath><clipPath id="8f5ad17f33"><path d="M 362.46875 73.378906 L 265.503906 63.152344 L 240.332031 301.828125 L 337.292969 312.054688 Z M 362.46875 73.378906 " clip-rule="nonzero"/></clipPath><clipPath id="fb33549153"><path d="M 244 250 L 259 250 L 259 288 L 244 288 Z M 244 250 " clip-rule="nonzero"/></clipPath><clipPath id="2b36a84e66"><path d="M 265.191406 63.121094 L 362.152344 73.347656 L 336.980469 312.023438 L 240.015625 301.796875 Z M 265.191406 63.121094 " clip-rule="nonzero"/></clipPath><clipPath id="334a48a12a"><path d="M 362.46875 73.378906 L 265.503906 63.152344 L 240.332031 301.828125 L 337.292969 312.054688 Z M 362.46875 73.378906 " clip-rule="nonzero"/></clipPath><clipPath id="fc22246930"><path d="M 241 65 L 323 65 L 323 303 L 241 303 Z M 241 65 " clip-rule="nonzero"/></clipPath><clipPath id="27fe3da129"><path d="M 265.191406 63.121094 L 362.152344 73.347656 L 336.980469 312.023438 L 240.015625 301.796875 Z M 265.191406 63.121094 " clip-rule="nonzero"/></clipPath><clipPath id="4c32967379"><path d="M 362.46875 73.378906 L 265.503906 63.152344 L 240.332031 301.828125 L 337.292969 312.054688 Z M 362.46875 73.378906 " clip-rule="nonzero"/></clipPath><clipPath id="b3581d97af"><path d="M 101.683594 86.175781 L 274.183594 86.175781 L 274.183594 289 L 101.683594 289 Z M 101.683594 86.175781 " clip-rule="nonzero"/></clipPath><clipPath id="74402ede1e"><path d="M 171.976562 77.730469 L 203.023438 77.730469 L 203.023438 107.324219 L 171.976562 107.324219 Z M 171.976562 77.730469 " clip-rule="nonzero"/></clipPath><clipPath id="7496df027e"><path d="M 187.5 77.730469 L 191.164062 89.035156 L 203.023438 89.035156 L 193.429688 96.019531 L 197.09375 107.324219 L 187.5 100.339844 L 177.90625 107.324219 L 181.570312 96.019531 L 171.976562 89.035156 L 183.835938 89.035156 Z M 187.5 77.730469 " clip-rule="nonzero"/></clipPath><clipPath id="2022dc0282"><path d="M 203.023438 62.933594 L 234.074219 62.933594 L 234.074219 92.527344 L 203.023438 92.527344 Z M 203.023438 62.933594 " clip-rule="nonzero"/></clipPath><clipPath id="fdc60810a4"><path d="M 218.550781 62.933594 L 222.214844 74.238281 L 234.074219 74.238281 L 224.480469 81.222656 L 228.144531 92.527344 L 218.550781 85.542969 L 208.953125 92.527344 L 212.621094 81.222656 L 203.023438 74.238281 L 214.886719 74.238281 Z M 218.550781 62.933594 " clip-rule="nonzero"/></clipPath><clipPath id="a9242e35ad"><path d="M 140.925781 62.933594 L 171.976562 62.933594 L 171.976562 92.527344 L 140.925781 92.527344 Z M 140.925781 62.933594 " clip-rule="nonzero"/></clipPath><clipPath id="d07802a52f"><path d="M 156.449219 62.933594 L 160.113281 74.238281 L 171.976562 74.238281 L 162.378906 81.222656 L 166.046875 92.527344 L 156.449219 85.542969 L 146.855469 92.527344 L 150.519531 81.222656 L 140.925781 74.238281 L 152.785156 74.238281 Z M 156.449219 62.933594 " clip-rule="nonzero"/></clipPath></defs><g clip-path="url(#18e7b0f0f8)"><g clip-path="url(#c6ecbd88e4)"><g clip-path="url(#49004461a3)"><path fill="#10294b" d="M 65.578125 100.429688 C 66.667969 94.976562 66.351562 89.125 64.222656 83.570312 C 62.109375 78.054688 58.410156 73.773438 53.617188 71.542969 C 51.269531 77.65625 51.246094 84.265625 53.703125 89.75 C 56.175781 95.273438 60.582031 98.730469 65.578125 100.429688 Z M 65.578125 100.429688 " fill-opacity="1" fill-rule="nonzero"/></g></g></g><g clip-path="url(#e7dc028ccf)"><g clip-path="url(#39ac7770d1)"><g clip-path="url(#33d738689f)"><path fill="#10294b" d="M 70.128906 102.660156 C 74.539062 105.546875 80.007812 106.820312 85.515625 106.492188 C 91.03125 106.160156 95.679688 104.363281 99.21875 101.65625 C 95.148438 98.34375 90.074219 96.066406 84.457031 96.113281 C 78.855469 96.15625 73.742188 98.636719 70.128906 102.660156 Z M 70.128906 102.660156 " fill-opacity="1" fill-rule="nonzero"/></g></g></g><g clip-path="url(#81ae558c2a)"><g clip-path="url(#779f0ba833)"><g clip-path="url(#a88737d5a7)"><path fill="#10294b" d="M 59.347656 115.113281 C 59.84375 109.472656 58.769531 103.539062 56.019531 98.167969 C 53.179688 92.789062 49.027344 88.914062 43.878906 87.191406 C 42.21875 93.6875 42.910156 100.402344 46.0625 105.691406 C 49.210938 111.011719 54.085938 113.988281 59.347656 115.113281 Z M 59.347656 115.113281 " fill-opacity="1" fill-rule="nonzero"/></g></g></g><g clip-path="url(#b66d07fbcc)"><g clip-path="url(#11215a0711)"><g clip-path="url(#114577705e)"><path fill="#10294b" d="M 80.28125 118.910156 C 85.808594 117.925781 90.339844 115.609375 93.585938 112.460938 C 89.105469 109.589844 83.617188 107.820312 77.988281 108.542969 C 72.265625 109.207031 67.449219 112.34375 64.226562 116.835938 C 69.042969 119.234375 74.742188 119.875 80.28125 118.910156 Z M 80.28125 118.910156 " fill-opacity="1" fill-rule="nonzero"/></g></g></g><g clip-path="url(#eb6829253f)"><g clip-path="url(#0800f8e43a)"><g clip-path="url(#745c35bc01)"><path fill="#10294b" d="M 40.1875 122.8125 C 44.066406 127.84375 49.355469 130.257812 54.835938 130.757812 C 54.722656 127.855469 54.183594 124.941406 53.328125 122.117188 C 52.390625 119.277344 51.148438 116.535156 49.398438 113.964844 C 45.878906 108.84375 41.222656 105.398438 35.792969 104.265625 C 35.28125 107.648438 35.523438 111.085938 36.199219 114.226562 C 36.996094 117.40625 38.28125 120.316406 40.1875 122.8125 Z M 40.1875 122.8125 " fill-opacity="1" fill-rule="nonzero"/></g></g></g><g clip-path="url(#252199688d)"><g clip-path="url(#71df1398be)"><g clip-path="url(#e9d094ee49)"><path fill="#10294b" d="M 59.988281 131.90625 C 65.148438 133.746094 71.015625 133.699219 76.464844 132.050781 C 79.207031 131.230469 81.707031 130.105469 83.773438 128.722656 C 85.964844 127.378906 87.65625 125.75 89.167969 123.992188 C 84.289062 121.621094 78.507812 120.464844 72.898438 121.859375 C 70.074219 122.546875 67.460938 123.796875 65.3125 125.53125 C 63.089844 127.246094 61.324219 129.4375 59.988281 131.90625 Z M 59.988281 131.90625 " fill-opacity="1" fill-rule="nonzero"/></g></g></g><g clip-path="url(#a677af9f03)"><g clip-path="url(#f3a41b994d)"><g clip-path="url(#0fb22a347d)"><path fill="#10294b" d="M 52.171875 147.160156 C 51.601562 144.226562 50.886719 141.359375 49.550781 138.589844 C 48.296875 135.832031 46.699219 133.203125 44.574219 130.808594 C 40.464844 126.0625 35.238281 123.109375 29.632812 122.636719 C 29.472656 129.671875 31.90625 136.351562 36.367188 140.921875 C 40.808594 145.527344 46.613281 147.335938 52.171875 147.160156 Z M 52.171875 147.160156 " fill-opacity="1" fill-rule="nonzero"/></g></g></g><g clip-path="url(#3c630b8290)"><g clip-path="url(#9cb63fe095)"><g clip-path="url(#8e1f22a955)"><path fill="#10294b" d="M 57.53125 147.6875 C 63.042969 148.921875 68.828125 148.128906 74.25 145.800781 C 79.628906 143.457031 83.558594 140.019531 86.109375 136.117188 C 80.84375 134.300781 74.945312 133.847656 69.347656 135.921875 C 66.609375 136.972656 64.121094 138.554688 62.117188 140.570312 C 60.191406 142.59375 58.484375 145.011719 57.53125 147.6875 Z M 57.53125 147.6875 " fill-opacity="1" fill-rule="nonzero"/></g></g></g><g clip-path="url(#0beec0d543)"><g clip-path="url(#5c35cbd76a)"><g clip-path="url(#3219328578)"><path fill="#10294b" d="M 51.472656 164.097656 C 50.671875 161.191406 49.335938 158.378906 47.800781 155.742188 C 46.199219 153.101562 44.140625 150.636719 41.796875 148.476562 C 37.039062 144.175781 31.3125 141.828125 25.601562 142.039062 C 26.414062 149.195312 29.59375 155.636719 34.699219 159.710938 C 39.863281 163.816406 45.808594 164.949219 51.472656 164.097656 Z M 51.472656 164.097656 " fill-opacity="1" fill-rule="nonzero"/></g></g></g><g clip-path="url(#9984241915)"><g clip-path="url(#6552dc7204)"><g clip-path="url(#e9cd765fdb)"><path fill="#10294b" d="M 73.675781 160.023438 C 78.8125 156.972656 82.472656 153.003906 84.472656 148.71875 C 78.890625 147.53125 72.925781 147.804688 67.523438 150.601562 C 64.777344 151.996094 62.5625 153.917969 60.769531 156.203125 C 58.914062 158.488281 57.738281 161.152344 56.96875 163.980469 C 62.644531 164.5625 68.566406 163.058594 73.675781 160.023438 Z M 73.675781 160.023438 " fill-opacity="1" fill-rule="nonzero"/></g></g></g><g clip-path="url(#007445d7ea)"><g clip-path="url(#79cac07397)"><g clip-path="url(#b45ed6df24)"><path fill="#10294b" d="M 28.125 171.855469 C 29.984375 174.722656 32.46875 177.09375 35.289062 178.855469 C 40.917969 182.402344 47.128906 182.851562 52.761719 181.332031 C 51.609375 178.484375 50.042969 175.78125 48.042969 173.308594 C 46.160156 170.828125 43.832031 168.574219 41.101562 166.683594 C 35.785156 162.914062 29.761719 161.234375 23.972656 162.144531 C 24.398438 163.917969 24.894531 165.640625 25.605469 167.265625 C 26.332031 168.890625 27.175781 170.429688 28.125 171.855469 Z M 28.125 171.855469 " fill-opacity="1" fill-rule="nonzero"/></g></g></g><g clip-path="url(#8ccf2f8588)"><g clip-path="url(#357b53acda)"><g clip-path="url(#18c7a77939)"><path fill="#10294b" d="M 74.832031 174.59375 C 77.257812 172.742188 79.203125 170.671875 80.863281 168.503906 C 81.667969 167.417969 82.355469 166.308594 82.921875 165.175781 C 83.503906 164.046875 84.054688 162.90625 84.429688 161.746094 C 78.65625 161.21875 72.582031 162.230469 67.425781 165.726562 C 64.90625 167.476562 62.839844 169.695312 61.246094 172.234375 C 59.765625 174.765625 58.765625 177.617188 58.320312 180.574219 C 64.152344 180.507812 69.929688 178.304688 74.832031 174.59375 Z M 74.832031 174.59375 " fill-opacity="1" fill-rule="nonzero"/></g></g></g><g clip-path="url(#a846542597)"><g clip-path="url(#48992246ff)"><g clip-path="url(#884cdc6109)"><path fill="#10294b" d="M 38.023438 198.0625 C 44.066406 201.015625 50.535156 200.769531 56.039062 198.636719 C 53.019531 193.144531 48.460938 188.355469 42.597656 185.136719 C 36.648438 181.972656 30.46875 180.96875 24.671875 182.566406 C 25.851562 186.050781 27.789062 189.171875 29.976562 191.839844 C 32.207031 194.492188 35.011719 196.589844 38.023438 198.0625 Z M 38.023438 198.0625 " fill-opacity="1" fill-rule="nonzero"/></g></g></g><g clip-path="url(#520cce2b1e)"><g clip-path="url(#fc8e5352d4)"><g clip-path="url(#06e72624e2)"><path fill="#10294b" d="M 83.074219 182.464844 C 84.527344 180.050781 85.332031 177.570312 85.90625 175.101562 C 80.03125 175.230469 73.871094 176.992188 69.175781 181.140625 C 64.359375 185.289062 61.789062 191.167969 61.597656 197.273438 C 67.558594 196.570312 73.0625 193.730469 77.667969 189.386719 C 79.96875 187.21875 81.671875 184.875 83.074219 182.464844 Z M 83.074219 182.464844 " fill-opacity="1" fill-rule="nonzero"/></g></g></g><g clip-path="url(#eeea7142ac)"><g clip-path="url(#677dc614d4)"><g clip-path="url(#8a00770199)"><path fill="#10294b" d="M 42.992188 217.335938 C 49.566406 219.746094 55.882812 218.765625 61.269531 215.886719 C 57.746094 210.605469 52.285156 206.203125 46.117188 203.585938 C 39.789062 201.019531 33.296875 200.746094 27.632812 202.96875 C 29.292969 206.289062 31.480469 209.25 33.980469 211.6875 C 36.640625 214.183594 39.734375 216.144531 42.992188 217.335938 Z M 42.992188 217.335938 " fill-opacity="1" fill-rule="nonzero"/></g></g></g><g clip-path="url(#5dbe2e1fe0)"><g clip-path="url(#cb2fd77db0)"><g clip-path="url(#c62520b835)"><path fill="#10294b" d="M 86.898438 196.617188 C 88.09375 193.980469 88.742188 191.324219 88.949219 188.714844 C 82.945312 189.480469 77.019531 191.953125 72.664062 196.699219 C 68.125 201.507812 66.398438 207.53125 66.726562 213.8125 C 72.597656 212.378906 78.023438 208.746094 82.183594 203.957031 C 84.261719 201.550781 85.804688 199.117188 86.898438 196.617188 Z M 86.898438 196.617188 " fill-opacity="1" fill-rule="nonzero"/></g></g></g><g clip-path="url(#3d214d30fc)"><g clip-path="url(#59a62ac033)"><g clip-path="url(#0960b02afe)"><path fill="#10294b" d="M 50.480469 236.550781 C 57.507812 238 63.828125 236.199219 68.894531 232.617188 C 64.304688 227.898438 58.753906 224.023438 51.875 222.160156 C 48.417969 221.265625 45.183594 220.84375 42.007812 221.070312 C 38.84375 221.296875 35.8125 222.140625 33.074219 223.628906 C 35.019531 227.085938 37.886719 229.796875 40.792969 232.039062 C 43.773438 234.234375 46.914062 235.875 50.480469 236.550781 Z M 50.480469 236.550781 " fill-opacity="1" fill-rule="nonzero"/></g></g></g><g clip-path="url(#399d089144)"><g clip-path="url(#9b56f00217)"><g clip-path="url(#f097ebf3ce)"><path fill="#10294b" d="M 88.390625 217.878906 C 90.027344 215.199219 91.476562 212.382812 92.296875 209.691406 C 93.199219 206.980469 93.324219 204.386719 93.503906 201.847656 C 90.527344 202.617188 87.601562 203.777344 84.910156 205.410156 C 82.230469 207.042969 79.707031 209.179688 77.871094 211.792969 C 74.101562 217.027344 72.667969 223.6875 74.160156 229.828125 C 79.949219 227.628906 84.945312 223.292969 88.390625 217.878906 Z M 88.390625 217.878906 " fill-opacity="1" fill-rule="nonzero"/></g></g></g><g clip-path="url(#0c9876e898)"><g clip-path="url(#8d389c1b5b)"><g clip-path="url(#ed49aec5c9)"><path fill="#10294b" d="M 78.507812 248.683594 C 75.882812 246.574219 73.179688 244.632812 70.070312 243.191406 C 66.992188 241.734375 63.539062 240.765625 60.101562 240.183594 C 53.132812 239.101562 46.4375 240.433594 41.292969 244.121094 C 42.566406 245.636719 43.933594 247.035156 45.375 248.292969 C 46.097656 248.921875 46.832031 249.519531 47.59375 250.070312 C 48.386719 250.589844 49.191406 251.078125 50.011719 251.523438 C 53.292969 253.304688 56.773438 254.445312 60.320312 254.804688 C 67.488281 255.480469 73.8125 252.851562 78.507812 248.683594 Z M 78.507812 248.683594 " fill-opacity="1" fill-rule="nonzero"/></g></g></g><g clip-path="url(#85920a1b3b)"><g clip-path="url(#07f9213dc0)"><g clip-path="url(#a50f83387f)"><path fill="#10294b" d="M 96.589844 231.480469 C 98.082031 228.476562 99.035156 225.476562 99.46875 222.605469 C 99.578125 221.886719 99.652344 221.175781 99.699219 220.472656 C 99.78125 219.757812 99.847656 219.050781 99.875 218.355469 C 99.929688 216.960938 99.863281 215.609375 99.664062 214.304688 C 93.796875 216.609375 88.449219 220.527344 85.132812 226.433594 C 83.402344 229.421875 82.601562 232.527344 82.34375 235.738281 C 82.109375 238.933594 82.402344 242.257812 83.539062 245.261719 C 89.207031 242.359375 93.65625 237.472656 96.589844 231.480469 Z M 96.589844 231.480469 " fill-opacity="1" fill-rule="nonzero"/></g></g></g><g clip-path="url(#569ca1805b)"><g clip-path="url(#0521b48f13)"><g clip-path="url(#273ec70be0)"><path fill="#10294b" d="M 89.941406 263.953125 C 84.4375 260.003906 77.636719 257.617188 70.457031 257.296875 C 63.238281 257.054688 56.613281 259.230469 51.8125 263.535156 C 54.730469 266.207031 57.976562 268.382812 61.375 269.886719 C 64.851562 271.308594 68.515625 272.023438 72.148438 271.992188 C 79.417969 271.945312 85.578125 268.65625 89.941406 263.953125 Z M 89.941406 263.953125 " fill-opacity="1" fill-rule="nonzero"/></g></g></g><g clip-path="url(#020ad56aa9)"><g clip-path="url(#50c1dc44d9)"><g clip-path="url(#b0e3498ada)"><path fill="#10294b" d="M 106.589844 244.609375 C 107.761719 241.394531 108.335938 238.242188 108.453125 235.226562 C 108.667969 232.164062 108.378906 229.265625 107.585938 226.617188 C 101.878906 229.613281 96.953125 234.234375 94.332031 240.589844 C 91.613281 246.996094 92.035156 253.898438 94.707031 259.976562 C 100.171875 256.464844 104.210938 251.070312 106.589844 244.609375 Z M 106.589844 244.609375 " fill-opacity="1" fill-rule="nonzero"/></g></g></g><g clip-path="url(#1bc1178ce5)"><g clip-path="url(#90cd35e8ab)"><g clip-path="url(#b30d01941e)"><path fill="#10294b" d="M 102.996094 278.347656 C 97.011719 274.875 89.953125 273.027344 82.613281 273.476562 C 75.238281 274.007812 68.828125 276.839844 64.355469 281.703125 C 67.503906 284.125 71.019531 285.910156 74.589844 287.074219 C 78.1875 288.203125 81.984375 288.535156 85.652344 288.160156 C 93.015625 287.410156 98.992188 283.515625 102.996094 278.347656 Z M 102.996094 278.347656 " fill-opacity="1" fill-rule="nonzero"/></g></g></g><g clip-path="url(#dbd598543f)"><g clip-path="url(#9a6fbb0b0f)"><g clip-path="url(#dc4d135926)"><path fill="#10294b" d="M 105.226562 254.167969 C 103.164062 260.933594 104.171875 267.972656 107.484375 273.878906 C 112.726562 269.816406 116.351562 263.980469 118.136719 257.171875 C 119.03125 253.777344 119.261719 250.519531 119.117188 247.378906 C 119.007812 244.214844 118.320312 241.292969 117.269531 238.597656 C 111.792969 242.1875 107.191406 247.460938 105.226562 254.167969 Z M 105.226562 254.167969 " fill-opacity="1" fill-rule="nonzero"/></g></g></g><g clip-path="url(#5f402b447c)"><g clip-path="url(#65be171f28)"><g clip-path="url(#1bf038f7b3)"><path fill="#10294b" d="M 96.386719 288.6875 C 88.972656 289.867188 82.703125 293.386719 78.601562 298.71875 C 82.011719 300.832031 85.667969 302.382812 89.410156 303.199219 C 93.195312 303.960938 97 304.0625 100.714844 303.335938 C 108.214844 301.835938 113.855469 297.492188 117.515625 291.84375 C 114.320312 290.328125 110.875 289.285156 107.339844 288.703125 C 103.761719 288.175781 100.089844 288.117188 96.386719 288.6875 Z M 96.386719 288.6875 " fill-opacity="1" fill-rule="nonzero"/></g></g></g><g clip-path="url(#93c0773084)"><g clip-path="url(#70bfd78c6b)"><g clip-path="url(#f61d05f425)"><path fill="#10294b" d="M 117.671875 277.480469 C 118.355469 280.875 119.757812 284.054688 121.691406 286.914062 C 126.628906 282.367188 129.925781 276 131.0625 269.015625 C 131.648438 265.507812 131.691406 262.085938 131.199219 258.941406 C 130.753906 255.746094 129.84375 252.757812 128.46875 250.105469 C 123.210938 254.25 119.070312 260.015625 117.65625 267.046875 C 116.921875 270.585938 116.9375 274.136719 117.671875 277.480469 Z M 117.671875 277.480469 " fill-opacity="1" fill-rule="nonzero"/></g></g></g><g clip-path="url(#d9caf8c813)"><g clip-path="url(#38412ba5fa)"><g clip-path="url(#8d7c6e7436)"><path fill="#10294b" d="M 110.070312 277.894531 C 102.621094 270.890625 95.65625 263.355469 89.347656 255.3125 C 87.742188 253.324219 86.144531 251.324219 84.707031 249.210938 C 83.238281 247.121094 81.714844 245.066406 80.289062 242.945312 C 77.605469 238.597656 74.753906 234.34375 72.476562 229.765625 C 69.917969 225.328125 67.988281 220.59375 65.90625 215.925781 C 64.878906 213.585938 64.183594 211.121094 63.304688 208.722656 C 62.46875 206.308594 61.578125 203.910156 60.976562 201.414062 C 55.378906 181.714844 53.441406 160.859375 56.320312 140.488281 C 58.503906 124.867188 63.546875 109.632812 71.070312 95.710938 C 77.242188 93.15625 82.710938 89.179688 86.886719 83.632812 C 91.160156 78.0625 93.402344 71.734375 94.4375 65.101562 C 87.640625 65.40625 80.714844 69.15625 75.984375 75.355469 C 71.316406 81.542969 69.667969 88.976562 70.835938 95.550781 C 63.019531 109.359375 57.636719 124.578125 55.121094 140.304688 C 51.8125 160.800781 53.351562 181.96875 58.636719 202.046875 C 59.195312 204.582031 60.050781 207.046875 60.855469 209.527344 C 61.703125 211.988281 62.367188 214.519531 63.367188 216.925781 C 65.390625 221.726562 67.273438 226.597656 69.789062 231.167969 C 72.027344 235.886719 74.839844 240.277344 77.492188 244.761719 C 78.902344 246.953125 80.414062 249.074219 81.867188 251.234375 C 83.292969 253.417969 84.878906 255.484375 86.472656 257.542969 C 92.742188 265.863281 99.679688 273.667969 107.125 280.949219 C 114.566406 288.246094 122.421875 295.09375 130.878906 301.296875 C 132.042969 302.140625 133.652344 301.914062 134.390625 300.78125 C 135.121094 299.652344 134.824219 298.132812 133.691406 297.34375 C 125.382812 291.496094 117.503906 284.90625 110.070312 277.894531 Z M 110.070312 277.894531 " fill-opacity="1" fill-rule="nonzero"/></g></g></g><g clip-path="url(#f3b05e2e8d)"><g clip-path="url(#448866a5f2)"><g clip-path="url(#d2dd67e02f)"><path fill="#10294b" d="M 309.554688 100.382812 C 308.433594 94.9375 308.722656 89.085938 310.820312 83.515625 C 312.90625 77.992188 316.582031 73.691406 321.363281 71.4375 C 323.742188 77.539062 323.800781 84.148438 321.375 89.644531 C 318.929688 95.179688 314.539062 98.660156 309.554688 100.382812 Z M 309.554688 100.382812 " fill-opacity="1" fill-rule="nonzero"/></g></g></g><g clip-path="url(#24ddc6910c)"><g clip-path="url(#881f8d12ed)"><g clip-path="url(#dedade268d)"><path fill="#10294b" d="M 305.011719 102.640625 C 300.617188 105.550781 295.152344 106.851562 289.648438 106.550781 C 284.128906 106.25 279.472656 104.476562 275.917969 101.785156 C 279.972656 98.453125 285.03125 96.152344 290.652344 96.167969 C 296.253906 96.183594 301.378906 98.636719 305.011719 102.640625 Z M 305.011719 102.640625 " fill-opacity="1" fill-rule="nonzero"/></g></g></g><g clip-path="url(#68c32350d3)"><g clip-path="url(#8a7a05bc9c)"><g clip-path="url(#c64b5017c8)"><path fill="#10294b" d="M 315.855469 115.035156 C 315.332031 109.398438 316.378906 103.460938 319.097656 98.074219 C 321.910156 92.679688 326.042969 88.785156 331.183594 87.035156 C 332.875 93.519531 332.222656 100.242188 329.097656 105.542969 C 325.972656 110.882812 321.117188 113.882812 315.855469 115.035156 Z M 315.855469 115.035156 " fill-opacity="1" fill-rule="nonzero"/></g></g></g><g clip-path="url(#b84be37cb1)"><g clip-path="url(#a23973d9cd)"><g clip-path="url(#59158b3ee1)"><path fill="#10294b" d="M 294.945312 118.941406 C 289.414062 117.988281 284.871094 115.695312 281.605469 112.5625 C 286.074219 109.667969 291.554688 107.871094 297.183594 108.5625 C 302.910156 109.195312 307.746094 112.3125 310.988281 116.785156 C 306.1875 119.207031 300.488281 119.878906 294.945312 118.941406 Z M 294.945312 118.941406 " fill-opacity="1" fill-rule="nonzero"/></g></g></g><g clip-path="url(#e9aa3b6edc)"><g clip-path="url(#c0d38e44b1)"><g clip-path="url(#b7c7020a73)"><path fill="#10294b" d="M 335.058594 122.636719 C 331.203125 127.6875 325.929688 130.128906 320.453125 130.65625 C 320.550781 127.753906 321.074219 124.835938 321.917969 122.007812 C 322.835938 119.164062 324.066406 116.414062 325.800781 113.839844 C 329.296875 108.695312 333.933594 105.230469 339.355469 104.066406 C 339.886719 107.445312 339.660156 110.886719 339.003906 114.027344 C 338.222656 117.214844 336.949219 120.128906 335.058594 122.636719 Z M 335.058594 122.636719 " fill-opacity="1" fill-rule="nonzero"/></g></g></g><g clip-path="url(#63c018f88a)"><g clip-path="url(#e1287e5328)"><g clip-path="url(#0d1f92358a)"><path fill="#10294b" d="M 315.308594 131.832031 C 310.152344 133.699219 304.289062 133.683594 298.832031 132.0625 C 296.082031 131.257812 293.578125 130.144531 291.507812 128.773438 C 289.304688 127.441406 287.605469 125.820312 286.085938 124.070312 C 290.953125 121.671875 296.726562 120.484375 302.339844 121.851562 C 305.171875 122.527344 307.789062 123.761719 309.945312 125.484375 C 312.183594 127.1875 313.957031 129.371094 315.308594 131.832031 Z M 315.308594 131.832031 " fill-opacity="1" fill-rule="nonzero"/></g></g></g><g clip-path="url(#3b1ddebfcc)"><g clip-path="url(#4a97b1ea15)"><g clip-path="url(#836c22d33b)"><path fill="#10294b" d="M 323.203125 147.042969 C 323.753906 144.105469 324.457031 141.238281 325.777344 138.460938 C 327.015625 135.699219 328.601562 133.058594 330.714844 130.65625 C 334.796875 125.886719 340.011719 122.910156 345.613281 122.402344 C 345.808594 129.441406 343.410156 136.132812 338.972656 140.726562 C 334.558594 145.351562 328.757812 147.191406 323.203125 147.042969 Z M 323.203125 147.042969 " fill-opacity="1" fill-rule="nonzero"/></g></g></g><g clip-path="url(#f53fdc318a)"><g clip-path="url(#8bb2ceb269)"><g clip-path="url(#802a63c5a5)"><path fill="#10294b" d="M 317.84375 147.597656 C 312.339844 148.863281 306.550781 148.101562 301.117188 145.800781 C 295.722656 143.484375 291.777344 140.066406 289.207031 136.175781 C 294.460938 134.335938 300.359375 133.851562 305.964844 135.898438 C 308.710938 136.933594 311.207031 138.503906 313.222656 140.507812 C 315.15625 142.523438 316.878906 144.929688 317.84375 147.597656 Z M 317.84375 147.597656 " fill-opacity="1" fill-rule="nonzero"/></g></g></g><g clip-path="url(#09d7eb1843)"><g clip-path="url(#a3131d6b2a)"><g clip-path="url(#649f7f06fd)"><path fill="#10294b" d="M 323.988281 163.976562 C 324.773438 161.066406 326.09375 158.25 327.617188 155.601562 C 329.203125 152.957031 331.25 150.476562 333.582031 148.308594 C 338.316406 143.984375 344.035156 141.605469 349.746094 141.789062 C 348.96875 148.945312 345.820312 155.402344 340.738281 159.503906 C 335.597656 163.636719 329.65625 164.800781 323.988281 163.976562 Z M 323.988281 163.976562 " fill-opacity="1" fill-rule="nonzero"/></g></g></g><g clip-path="url(#11d949a3dd)"><g clip-path="url(#9fa701e4d0)"><g clip-path="url(#cf39c54380)"><path fill="#10294b" d="M 301.765625 160.019531 C 296.613281 156.996094 292.929688 153.046875 290.910156 148.773438 C 296.484375 147.554688 302.453125 147.800781 307.867188 150.566406 C 310.621094 151.945312 312.84375 153.855469 314.648438 156.136719 C 316.515625 158.410156 317.707031 161.066406 318.492188 163.890625 C 312.820312 164.5 306.890625 163.03125 301.765625 160.019531 Z M 301.765625 160.019531 " fill-opacity="1" fill-rule="nonzero"/></g></g></g><g clip-path="url(#63d293820b)"><g clip-path="url(#0aa7e3c697)"><g clip-path="url(#463c8e1b05)"><path fill="#10294b" d="M 347.375 171.617188 C 345.53125 174.492188 343.0625 176.875 340.246094 178.652344 C 334.636719 182.226562 328.429688 182.710938 322.789062 181.21875 C 323.925781 178.367188 325.480469 175.652344 327.464844 173.171875 C 329.335938 170.679688 331.652344 168.414062 334.371094 166.511719 C 339.671875 162.710938 345.683594 161.003906 351.476562 161.882812 C 351.0625 163.65625 350.574219 165.386719 349.871094 167.015625 C 349.152344 168.640625 348.320312 170.183594 347.375 171.617188 Z M 347.375 171.617188 " fill-opacity="1" fill-rule="nonzero"/></g></g></g><g clip-path="url(#c54385f959)"><g clip-path="url(#20f81b0039)"><g clip-path="url(#1e34220370)"><path fill="#10294b" d="M 300.683594 174.597656 C 298.246094 172.757812 296.292969 170.695312 294.621094 168.539062 C 293.808594 167.457031 293.117188 166.347656 292.542969 165.222656 C 291.957031 164.09375 291.398438 162.957031 291.019531 161.800781 C 296.789062 161.238281 302.871094 162.222656 308.042969 165.691406 C 310.574219 167.429688 312.652344 169.636719 314.257812 172.167969 C 315.753906 174.691406 316.765625 177.535156 317.226562 180.492188 C 311.394531 180.453125 305.605469 178.28125 300.683594 174.597656 Z M 300.683594 174.597656 " fill-opacity="1" fill-rule="nonzero"/></g></g></g><g clip-path="url(#1d3c1a7fee)"><g clip-path="url(#eeb70a8e21)"><g clip-path="url(#0c4a6c2d16)"><path fill="#10294b" d="M 337.613281 197.871094 C 331.585938 200.859375 325.117188 200.644531 319.601562 198.542969 C 322.59375 193.035156 327.128906 188.222656 332.972656 184.972656 C 338.90625 181.773438 345.082031 180.742188 350.886719 182.308594 C 349.722656 185.800781 347.800781 188.929688 345.628906 191.609375 C 343.410156 194.273438 340.617188 196.382812 337.613281 197.871094 Z M 337.613281 197.871094 " fill-opacity="1" fill-rule="nonzero"/></g></g></g><g clip-path="url(#3d0c2907a1)"><g clip-path="url(#2db49041c3)"><g clip-path="url(#e23e15db87)"><path fill="#10294b" d="M 292.484375 182.507812 C 291.019531 180.101562 290.199219 177.628906 289.609375 175.160156 C 295.488281 175.257812 301.65625 176.988281 306.375 181.113281 C 311.210938 185.234375 313.8125 191.101562 314.035156 197.207031 C 308.070312 196.535156 302.554688 193.726562 297.925781 189.402344 C 295.613281 187.25 293.898438 184.914062 292.484375 182.507812 Z M 292.484375 182.507812 " fill-opacity="1" fill-rule="nonzero"/></g></g></g><g clip-path="url(#5c1412a6ac)"><g clip-path="url(#54c592d961)"><g clip-path="url(#5ab0b49b8d)"><path fill="#10294b" d="M 332.742188 217.171875 C 326.183594 219.617188 319.863281 218.667969 314.460938 215.816406 C 317.957031 210.519531 323.394531 206.089844 329.550781 203.4375 C 335.863281 200.839844 342.355469 200.53125 348.03125 202.726562 C 346.386719 206.054688 344.21875 209.023438 341.726562 211.476562 C 339.082031 213.988281 336 215.964844 332.742188 217.171875 Z M 332.742188 217.171875 " fill-opacity="1" fill-rule="nonzero"/></g></g></g><g clip-path="url(#b934404347)"><g clip-path="url(#32c82c6cff)"><g clip-path="url(#1a8dc6c70b)"><path fill="#10294b" d="M 288.734375 196.683594 C 287.523438 194.054688 286.859375 191.398438 286.640625 188.792969 C 292.644531 189.527344 298.585938 191.964844 302.96875 196.6875 C 307.527344 201.476562 309.289062 207.492188 308.992188 213.773438 C 303.117188 212.367188 297.667969 208.761719 293.484375 203.996094 C 291.394531 201.601562 289.839844 199.175781 288.734375 196.683594 Z M 288.734375 196.683594 " fill-opacity="1" fill-rule="nonzero"/></g></g></g><g clip-path="url(#e724982ce7)"><g clip-path="url(#8362f57a7b)"><g clip-path="url(#2814f79b63)"><path fill="#10294b" d="M 325.359375 236.425781 C 318.335938 237.914062 312.007812 236.144531 306.921875 232.589844 C 311.488281 227.84375 317.019531 223.941406 323.886719 222.042969 C 327.34375 221.128906 330.574219 220.691406 333.75 220.902344 C 336.914062 221.109375 339.949219 221.9375 342.695312 223.414062 C 340.765625 226.878906 337.917969 229.605469 335.019531 231.863281 C 332.054688 234.074219 328.917969 235.734375 325.359375 236.425781 Z M 325.359375 236.425781 " fill-opacity="1" fill-rule="nonzero"/></g></g></g><g clip-path="url(#ae3ed2626d)"><g clip-path="url(#cd5de75fe4)"><g clip-path="url(#d300961ea4)"><path fill="#10294b" d="M 287.351562 217.953125 C 285.703125 215.277344 284.234375 212.472656 283.402344 209.78125 C 282.484375 207.078125 282.347656 204.484375 282.152344 201.949219 C 285.136719 202.699219 288.066406 203.84375 290.765625 205.464844 C 293.457031 207.082031 295.988281 209.207031 297.839844 211.8125 C 301.636719 217.023438 303.105469 223.675781 301.640625 229.828125 C 295.84375 227.65625 290.824219 223.347656 287.351562 217.953125 Z M 287.351562 217.953125 " fill-opacity="1" fill-rule="nonzero"/></g></g></g><g clip-path="url(#54a57e701a)"><g clip-path="url(#79616e3a06)"><g clip-path="url(#352bf3c28d)"><path fill="#10294b" d="M 297.390625 248.707031 C 300.007812 246.582031 302.703125 244.625 305.800781 243.167969 C 308.875 241.695312 312.320312 240.710938 315.757812 240.105469 C 322.714844 238.992188 329.417969 240.289062 334.585938 243.949219 C 333.320312 245.46875 331.957031 246.878906 330.523438 248.140625 C 329.804688 248.773438 329.074219 249.375 328.3125 249.929688 C 327.523438 250.457031 326.722656 250.945312 325.902344 251.394531 C 322.632812 253.195312 319.15625 254.351562 315.613281 254.730469 C 308.445312 255.441406 302.113281 252.847656 297.390625 248.707031 Z M 297.390625 248.707031 " fill-opacity="1" fill-rule="nonzero"/></g></g></g><g clip-path="url(#5fd7ca9d69)"><g clip-path="url(#7abf27379d)"><g clip-path="url(#e5d1af5cc8)"><path fill="#10294b" d="M 279.222656 231.597656 C 277.714844 228.601562 276.746094 225.605469 276.296875 222.734375 C 276.183594 222.015625 276.105469 221.304688 276.058594 220.601562 C 275.972656 219.890625 275.902344 219.183594 275.871094 218.484375 C 275.804688 217.09375 275.867188 215.742188 276.058594 214.433594 C 281.9375 216.710938 287.304688 220.601562 290.65625 226.488281 C 292.398438 229.46875 293.214844 232.570312 293.488281 235.777344 C 293.738281 238.972656 293.464844 242.300781 292.347656 245.308594 C 286.660156 242.433594 282.1875 237.574219 279.222656 231.597656 Z M 279.222656 231.597656 " fill-opacity="1" fill-rule="nonzero"/></g></g></g><g clip-path="url(#0cbb1f912b)"><g clip-path="url(#423599d360)"><g clip-path="url(#245682a43f)"><path fill="#10294b" d="M 286.039062 264.03125 C 291.523438 260.054688 298.3125 257.632812 305.488281 257.273438 C 312.707031 256.996094 319.34375 259.140625 324.164062 263.417969 C 321.261719 266.101562 318.027344 268.296875 314.636719 269.816406 C 311.167969 271.257812 307.507812 271.992188 303.875 271.976562 C 296.601562 271.972656 290.425781 268.714844 286.039062 264.03125 Z M 286.039062 264.03125 " fill-opacity="1" fill-rule="nonzero"/></g></g></g><g clip-path="url(#41e6344903)"><g clip-path="url(#0a67932cba)"><g clip-path="url(#2352ab2e87)"><path fill="#10294b" d="M 269.292969 244.777344 C 268.101562 241.566406 267.511719 238.417969 267.378906 235.402344 C 267.148438 232.339844 267.421875 229.441406 268.203125 226.789062 C 273.925781 229.757812 278.871094 234.347656 281.527344 240.691406 C 284.277344 247.082031 283.894531 253.988281 281.253906 260.082031 C 275.773438 256.601562 271.703125 251.222656 269.292969 244.777344 Z M 269.292969 244.777344 " fill-opacity="1" fill-rule="nonzero"/></g></g></g><g clip-path="url(#e07eb28b72)"><g clip-path="url(#4d5432cc31)"><g clip-path="url(#17369bd30c)"><path fill="#10294b" d="M 273.058594 278.496094 C 279.023438 274.988281 286.074219 273.105469 293.414062 273.515625 C 300.792969 274.011719 307.21875 276.808594 311.714844 281.648438 C 308.582031 284.089844 305.074219 285.890625 301.511719 287.074219 C 297.917969 288.222656 294.125 288.574219 290.453125 288.21875 C 283.089844 287.503906 277.09375 283.644531 273.058594 278.496094 Z M 273.058594 278.496094 " fill-opacity="1" fill-rule="nonzero"/></g></g></g><g clip-path="url(#3db2ccafdd)"><g clip-path="url(#0287206cac)"><g clip-path="url(#5d96203e89)"><path fill="#10294b" d="M 270.703125 254.324219 C 272.800781 261.082031 271.828125 268.125 268.546875 274.050781 C 263.285156 270.011719 259.628906 264.195312 257.808594 257.398438 C 256.898438 254.007812 256.648438 250.75 256.777344 247.609375 C 256.871094 244.449219 257.542969 241.519531 258.582031 238.820312 C 264.074219 242.382812 268.707031 247.628906 270.703125 254.324219 Z M 270.703125 254.324219 " fill-opacity="1" fill-rule="nonzero"/></g></g></g><g clip-path="url(#b77ca55e69)"><g clip-path="url(#e99e60936e)"><g clip-path="url(#8f5ad17f33)"><path fill="#10294b" d="M 279.722656 288.800781 C 287.140625 289.945312 293.429688 293.429688 297.5625 298.738281 C 294.160156 300.871094 290.511719 302.441406 286.777344 303.273438 C 282.992188 304.058594 279.191406 304.179688 275.46875 303.472656 C 267.964844 302.007812 262.300781 297.695312 258.613281 292.066406 C 261.800781 290.535156 265.238281 289.472656 268.769531 288.875 C 272.347656 288.328125 276.019531 288.25 279.722656 288.800781 Z M 279.722656 288.800781 " fill-opacity="1" fill-rule="nonzero"/></g></g></g><g clip-path="url(#fb33549153)"><g clip-path="url(#2b36a84e66)"><g clip-path="url(#334a48a12a)"><path fill="#10294b" d="M 258.378906 277.703125 C 257.714844 281.101562 256.328125 284.289062 254.410156 287.15625 C 249.449219 282.636719 246.121094 276.289062 244.945312 269.3125 C 244.339844 265.804688 244.28125 262.382812 244.753906 259.234375 C 245.183594 256.039062 246.078125 253.046875 247.441406 250.386719 C 252.71875 254.503906 256.890625 260.25 258.34375 267.269531 C 259.09375 270.808594 259.097656 274.355469 258.378906 277.703125 Z M 258.378906 277.703125 " fill-opacity="1" fill-rule="nonzero"/></g></g></g><g clip-path="url(#fc22246930)"><g clip-path="url(#27fe3da129)"><g clip-path="url(#4c32967379)"><path fill="#10294b" d="M 265.980469 278.078125 C 273.398438 271.035156 280.320312 263.464844 286.589844 255.390625 C 288.183594 253.390625 289.769531 251.386719 291.195312 249.265625 C 292.65625 247.167969 294.167969 245.101562 295.582031 242.976562 C 298.242188 238.617188 301.074219 234.34375 303.328125 229.753906 C 305.863281 225.304688 307.765625 220.5625 309.824219 215.882812 C 310.839844 213.535156 311.523438 211.066406 312.390625 208.664062 C 313.210938 206.246094 314.089844 203.84375 314.679688 201.34375 C 320.171875 181.613281 322.003906 160.75 319.019531 140.394531 C 316.753906 124.785156 311.632812 109.578125 304.035156 95.695312 C 297.851562 93.175781 292.359375 89.222656 288.15625 83.699219 C 283.855469 78.148438 281.582031 71.832031 280.511719 65.207031 C 287.308594 65.476562 294.253906 69.1875 299.015625 75.363281 C 303.714844 81.527344 305.402344 88.953125 304.269531 95.535156 C 312.160156 109.304688 317.617188 124.492188 320.214844 140.207031 C 323.632812 160.683594 322.203125 181.859375 317.023438 201.964844 C 316.472656 204.503906 315.632812 206.972656 314.84375 209.457031 C 314.007812 211.921875 313.355469 214.457031 312.367188 216.867188 C 310.367188 221.675781 308.511719 226.5625 306.019531 231.144531 C 303.808594 235.875 301.015625 240.277344 298.386719 244.777344 C 296.988281 246.972656 295.492188 249.105469 294.046875 251.273438 C 292.632812 253.464844 291.058594 255.539062 289.476562 257.605469 C 283.246094 265.957031 276.351562 273.800781 268.941406 281.121094 C 261.542969 288.453125 253.71875 295.34375 245.292969 301.589844 C 244.136719 302.4375 242.527344 302.222656 241.785156 301.089844 C 241.046875 299.96875 241.332031 298.445312 242.464844 297.648438 C 250.742188 291.761719 258.589844 285.128906 265.980469 278.078125 Z M 265.980469 278.078125 " fill-opacity="1" fill-rule="nonzero"/></g></g></g><g clip-path="url(#b3581d97af)"><path fill="#10294b" d="M 165.890625 256.210938 C 161.265625 243.941406 159.804688 231.332031 162.621094 218.308594 C 159.441406 218.035156 147.433594 219.777344 134.1875 208.703125 C 130.976562 206.019531 131.183594 206.960938 133.558594 203.570312 C 134.976562 201.542969 136.210938 199.382812 137.527344 197.285156 C 135.832031 196.898438 136.71875 197.628906 126.484375 197.015625 C 124.949219 196.921875 124.28125 196.105469 125.105469 194.53125 C 131.335938 182.59375 129.015625 186.660156 131.40625 182.628906 C 127.929688 183.664062 124.921875 184.5 121.570312 184.242188 C 124.3125 178.460938 128.195312 173.816406 132.683594 169.078125 C 128.695312 169.320312 125.273438 169.90625 121.648438 168.753906 C 124.796875 165.882812 127.652344 163.261719 130.542969 160.675781 C 131.496094 159.820312 131.125 159.917969 139.578125 163.273438 C 126.632812 187.167969 154.789062 204.527344 170.808594 189.679688 C 163.265625 199.535156 149.234375 201.304688 138.191406 190.09375 C 137.222656 189.109375 137.882812 189.636719 136.308594 188.273438 C 139.046875 192.914062 144.011719 200.8125 149.542969 202.484375 C 160.867188 205.902344 172.578125 199.167969 175.066406 187.582031 C 175.765625 184.316406 175.625 180.867188 175.894531 177.164062 L 183.171875 177.164062 C 182.105469 175.472656 177.917969 176.753906 168.277344 171.203125 C 142.058594 156.105469 120.335938 129.882812 107.730469 86.242188 C 107.03125 87.164062 107.199219 86.242188 107.25 110.324219 C 107.269531 120.121094 110.4375 128.804688 116.570312 136.417969 C 117.6875 137.808594 118.875 139.148438 120.03125 140.507812 C 112.730469 135.910156 106.984375 129.710938 101.691406 123.03125 C 104.808594 136.347656 111.21875 147.542969 122.460938 155.644531 C 115.078125 168.765625 110.148438 182.261719 115.199219 201.03125 C 115.542969 202.308594 115.335938 203.144531 114.589844 204.207031 C 106.351562 215.929688 106.125 228.53125 110.714844 237.582031 C 112.742188 228.015625 117.628906 220.726562 124.625 214.722656 C 117.703125 226.171875 114.808594 239.8125 118.589844 252.644531 C 123.355469 242.984375 129.089844 234.078125 136.335938 226.09375 C 130.796875 241.53125 132.117188 263.382812 140.925781 276.988281 C 142.046875 270.050781 141.945312 268.382812 144.742188 259.492188 C 148.886719 246.328125 153.011719 239.035156 154.800781 235.476562 C 154.988281 240.828125 149.746094 262.847656 171.609375 285.09375 C 173.890625 287.414062 176.503906 288.675781 179.699219 288.828125 C 185.164062 289.09375 184.695312 288.871094 186.242188 288.601562 C 176.347656 279.507812 170.433594 268.265625 165.890625 256.210938 Z M 142.160156 172.070312 C 142.597656 169.847656 143.980469 167.808594 144.929688 165.6875 L 151.148438 167.613281 C 148.179688 171.507812 147.195312 175.359375 149.84375 179.347656 C 151.851562 182.378906 154.914062 183.585938 158.472656 182.800781 C 162.894531 181.824219 164.925781 178.625 165.570312 174.183594 C 167.324219 174.753906 169.015625 175.214844 170.617188 175.890625 C 173.464844 177.09375 167.179688 192.09375 153.84375 189.535156 C 145.992188 188.03125 140.574219 180.128906 142.160156 172.070312 Z M 260.96875 200.996094 C 267.246094 178.578125 257.28125 162.332031 254.042969 155.363281 C 265.066406 147.40625 271.570312 136.332031 274.503906 123 C 269.582031 128.246094 268.785156 131.117188 256.140625 140.882812 C 256.632812 138.628906 268.902344 129.039062 268.777344 110.128906 C 268.730469 102.9375 268.753906 86.972656 268.753906 86.179688 C 265.328125 87.929688 261.296875 130.546875 220.371094 162.953125 C 201.082031 178.226562 192.601562 175.15625 192.804688 177.1875 L 200.902344 177.1875 C 197.988281 201.605469 222.292969 210.875 234.144531 196.921875 C 235.972656 194.773438 237.578125 192.433594 239.25 190.15625 C 239.625 189.644531 239.847656 189.027344 240.140625 188.457031 C 235.375 193.417969 230.1875 197.371094 223.082031 197.691406 C 215.957031 198.011719 207.667969 194.1875 206.023438 190.035156 C 223.097656 204.601562 249.671875 186.042969 236.675781 163.191406 C 239.292969 162.15625 241.734375 161.140625 244.21875 160.253906 C 245.324219 159.855469 246.222656 161.394531 254.335938 168.621094 L 254.148438 169.144531 L 243.609375 169.144531 C 251.234375 177.996094 248.34375 174.054688 254.59375 183.925781 L 254.179688 184.574219 L 244.835938 182.851562 C 245.839844 184.335938 245.070312 182.730469 251.136719 194.800781 C 251.804688 196.125 251.203125 196.832031 249.882812 196.984375 C 242.304688 197.835938 243.265625 197.472656 238.65625 196.941406 L 244.535156 206.515625 C 236.796875 214.238281 226.453125 218.648438 213.765625 218.296875 C 217.960938 245.910156 208.316406 268.609375 190.625 288.679688 C 193.722656 288.679688 199.496094 289.195312 201.875 287.214844 C 216.210938 275.257812 224.125 256.933594 221.066406 235.601562 C 227.925781 248.464844 232.980469 261.914062 235.21875 276.429688 C 244.285156 260.308594 244.921875 243.414062 239.96875 225.925781 C 247.113281 234.023438 252.847656 243.015625 257.503906 252.761719 C 260.902344 239.1875 258.734375 226.546875 251.511719 214.667969 C 258.589844 220.671875 263.425781 228.011719 265.421875 237.488281 C 270.125 228.066406 269.664062 215.71875 261.519531 204.199219 C 260.734375 203.089844 260.628906 202.222656 260.96875 200.996094 Z M 232.394531 182.476562 C 229.078125 188.054688 224.007812 190.476562 217.609375 189.605469 C 211.742188 188.804688 207.777344 185.386719 205.695312 179.84375 C 205.265625 178.703125 204.992188 177.507812 204.609375 176.203125 L 210.792969 174.136719 C 211.238281 178.589844 213.257812 181.605469 217.378906 182.671875 C 220.753906 183.546875 223.90625 182.746094 226.105469 179.875 C 229.234375 175.789062 228.359375 171.734375 225.390625 167.796875 C 227.324219 167.089844 229.066406 166.40625 230.847656 165.851562 C 231.175781 165.75 231.867188 166.074219 232.054688 166.398438 C 235.125 171.683594 235.585938 177.109375 232.394531 182.476562 Z M 128.320312 96.765625 C 128.886719 101.117188 124.703125 114.230469 145.527344 126.441406 C 146.136719 126.796875 147.144531 126.890625 147.8125 126.65625 C 173.972656 117.535156 205.753906 118.585938 227.574219 126.214844 C 229.304688 126.820312 230.648438 126.628906 232.171875 125.683594 C 244.828125 117.8125 248.792969 108.304688 247.726562 98.902344 C 247.535156 97.1875 247.515625 97.390625 248.070312 97.164062 C 248.597656 98.4375 249.25 99.675781 249.636719 100.988281 C 254.339844 117.054688 243.535156 129.417969 228.902344 137.546875 C 228.566406 137.734375 228.246094 137.949219 228 138.554688 L 240.425781 137.660156 C 237.269531 139.976562 203.472656 163.5 189.410156 173.195312 C 188.734375 173.660156 188.265625 173.894531 187.417969 173.304688 C 173.0625 163.308594 139.152344 139.757812 136.175781 137.640625 L 148.855469 138.558594 L 148.980469 138.1875 C 147.828125 137.5625 146.652344 136.972656 145.527344 136.304688 C 129.820312 127.003906 119.238281 112.042969 128.320312 96.765625 Z M 188.101562 224.4375 C 187.359375 222.867188 180.945312 208.6875 178.324219 202.769531 C 178.101562 202.265625 177.875 201.582031 178.039062 201.121094 C 179.839844 196.027344 181.71875 190.960938 183.988281 185.851562 L 187.992188 209.015625 L 188.414062 209.015625 L 192.304688 185.699219 L 192.640625 185.644531 C 193.214844 187.21875 196.800781 197.117188 197.976562 200.511719 C 198.550781 202.160156 198.761719 200.894531 188.101562 224.4375 Z M 150.554688 255.1875 C 150.628906 266.21875 152.113281 276.765625 160.441406 285.5625 C 155.5 284.257812 151.589844 281.566406 149.113281 278.605469 C 146.46875 275.449219 144.539062 272.261719 146.4375 267.777344 C 148.675781 262.496094 149.207031 256.96875 150.554688 255.1875 Z M 230.308594 273.125 C 227.640625 279.476562 222.714844 283.269531 216.324219 285.375 C 216.242188 285.402344 216.117188 285.308594 215.835938 285.207031 C 224.015625 276.910156 224.449219 268.476562 225.523438 255.203125 C 225.699219 255.582031 225.925781 255.949219 226.039062 256.347656 C 230.75 272.5625 230.734375 272.105469 230.308594 273.125 Z M 196.699219 250.128906 C 204.539062 244.667969 208.425781 237.148438 208.515625 228.117188 C 212.265625 234.101562 208.046875 250.296875 201.175781 256.859375 Z M 167.050781 228.234375 C 167.675781 237.445312 171.605469 244.800781 179.289062 250.109375 L 174.871094 257.03125 C 168.273438 248.304688 164.515625 239.152344 167.050781 228.234375 Z M 254.59375 254.609375 C 254.757812 255.007812 254.796875 255.546875 254.683594 255.964844 C 253.148438 261.601562 250.121094 266.210938 245.464844 269.417969 C 248.1875 257.875 250.152344 254.207031 247.527344 243.054688 C 250.589844 246.523438 252.867188 250.402344 254.59375 254.609375 Z M 131.117188 269.164062 C 128.769531 268.328125 125.519531 265.226562 123.9375 261.976562 C 120.324219 254.542969 120.71875 255.921875 124.046875 249.519531 C 125.222656 247.253906 126.761719 245.179688 128.136719 243.019531 L 128.605469 243.277344 C 126.679688 252.160156 127.285156 260.796875 131.117188 269.164062 Z M 131.117188 269.164062 " fill-opacity="1" fill-rule="nonzero"/></g><g clip-path="url(#74402ede1e)"><g clip-path="url(#7496df027e)"><path fill="#10294b" d="M 171.976562 77.730469 L 203.023438 77.730469 L 203.023438 107.324219 L 171.976562 107.324219 Z M 171.976562 77.730469 " fill-opacity="1" fill-rule="nonzero"/></g></g><g clip-path="url(#2022dc0282)"><g clip-path="url(#fdc60810a4)"><path fill="#10294b" d="M 203.023438 62.933594 L 234.074219 62.933594 L 234.074219 92.527344 L 203.023438 92.527344 Z M 203.023438 62.933594 " fill-opacity="1" fill-rule="nonzero"/></g></g><g clip-path="url(#a9242e35ad)"><g clip-path="url(#d07802a52f)"><path fill="#10294b" d="M 140.925781 62.933594 L 171.976562 62.933594 L 171.976562 92.527344 L 140.925781 92.527344 Z M 140.925781 62.933594 " fill-opacity="1" fill-rule="nonzero"/></g></g></svg>