<svg xmlns="http://www.w3.org/2000/svg" xmlns:xlink="http://www.w3.org/1999/xlink" width="500" zoomAndPan="magnify" viewBox="0 0 375 374.999991" height="500" preserveAspectRatio="xMidYMid meet" version="1.0"><defs><clipPath id="850ba44db4"><path d="M 347.429688 338.65625 L 365 338.65625 L 365 356.347656 L 347.429688 356.347656 Z M 347.429688 338.65625 " clip-rule="nonzero"/></clipPath><clipPath id="db0e6a2bf8"><path d="M 56 338.65625 L 73.613281 338.65625 L 73.613281 356.347656 L 56 356.347656 Z M 56 338.65625 " clip-rule="nonzero"/></clipPath><clipPath id="99c85b21d2"><path d="M 6.066406 224 L 82 224 L 82 339 L 6.066406 339 Z M 6.066406 224 " clip-rule="nonzero"/></clipPath><clipPath id="f0412860cf"><path d="M 6.066406 224 L 36 224 L 36 339 L 6.066406 339 Z M 6.066406 224 " clip-rule="nonzero"/></clipPath><clipPath id="e8149a696c"><path d="M 302 338.65625 L 319.804688 338.65625 L 319.804688 356.347656 L 302 356.347656 Z M 302 338.65625 " clip-rule="nonzero"/></clipPath><clipPath id="9320fe0520"><path d="M 10.238281 338.65625 L 28.113281 338.65625 L 28.113281 356.347656 L 10.238281 356.347656 Z M 10.238281 338.65625 " clip-rule="nonzero"/></clipPath><clipPath id="d5851304fd"><path d="M 293 224.238281 L 368.960938 224.238281 L 368.960938 339 L 293 339 Z M 293 224.238281 " clip-rule="nonzero"/></clipPath><clipPath id="a42775c8e4"><path d="M 138 339 L 187 339 L 187 356.347656 L 138 356.347656 Z M 138 339 " clip-rule="nonzero"/></clipPath><clipPath id="d848e2068e"><path d="M 138 352.449219 L 187 352.449219 L 187 356.347656 L 138 356.347656 Z M 138 352.449219 " clip-rule="nonzero"/></clipPath><clipPath id="923829537e"><path d="M 151.527344 185.003906 L 220.765625 185.003906 L 220.765625 231.796875 L 151.527344 231.796875 Z M 151.527344 185.003906 " clip-rule="nonzero"/></clipPath><clipPath id="91ec38ad65"><path d="M 158.273438 231.765625 L 151.527344 185.003906 L 216.683594 185.003906 L 220.765625 231.796875 Z M 158.273438 231.765625 " clip-rule="nonzero"/></clipPath><clipPath id="5719ee0b98"><path d="M 158.273438 231.765625 L 151.527344 185.003906 L 216.683594 185.003906 L 220.765625 231.796875 L 158.273438 231.765625 " clip-rule="nonzero"/></clipPath><linearGradient x1="-0.204547" gradientTransform="matrix(0, -39.804404, 39.855605, 0, 186.1467, 223.654004)" y1="0" x2="0.971016" gradientUnits="userSpaceOnUse" y2="0" id="912d5bd505"><stop stop-opacity="1" stop-color="rgb(78.799438%, 78.799438%, 81.999207%)" offset="0"/><stop stop-opacity="1" stop-color="rgb(78.799438%, 78.799438%, 81.999207%)" offset="0.125"/><stop stop-opacity="1" stop-color="rgb(78.799438%, 78.799438%, 81.999207%)" offset="0.1875"/><stop stop-opacity="1" stop-color="rgb(78.697205%, 78.697205%, 81.896973%)" offset="0.195312"/><stop stop-opacity="1" stop-color="rgb(78.492737%, 78.492737%, 81.692505%)" offset="0.203125"/><stop stop-opacity="1" stop-color="rgb(78.193665%, 78.193665%, 81.393433%)" offset="0.21875"/><stop stop-opacity="1" stop-color="rgb(77.893066%, 77.893066%, 81.092834%)" offset="0.226562"/><stop stop-opacity="1" stop-color="rgb(77.693176%, 77.693176%, 80.885315%)" offset="0.234375"/><stop stop-opacity="1" stop-color="rgb(77.59552%, 77.59552%, 80.59082%)" offset="0.25"/><stop stop-opacity="1" stop-color="rgb(77.44751%, 77.44751%, 80.39856%)" offset="0.265625"/><stop stop-opacity="1" stop-color="rgb(77.197266%, 77.197266%, 80.296326%)" offset="0.273438"/><stop stop-opacity="1" stop-color="rgb(76.989746%, 76.989746%, 80.090332%)" offset="0.28125"/><stop stop-opacity="1" stop-color="rgb(76.6922%, 76.6922%, 79.79126%)" offset="0.296875"/><stop stop-opacity="1" stop-color="rgb(76.499939%, 76.499939%, 79.400635%)" offset="0.3125"/><stop stop-opacity="1" stop-color="rgb(76.397705%, 76.397705%, 79.101562%)" offset="0.320312"/><stop stop-opacity="1" stop-color="rgb(76.193237%, 76.193237%, 78.898621%)" offset="0.328125"/><stop stop-opacity="1" stop-color="rgb(75.894165%, 75.894165%, 78.799438%)" offset="0.34375"/><stop stop-opacity="1" stop-color="rgb(75.595093%, 75.595093%, 78.694153%)" offset="0.351562"/><stop stop-opacity="1" stop-color="rgb(75.387573%, 75.387573%, 78.486633%)" offset="0.359375"/><stop stop-opacity="1" stop-color="rgb(75.091553%, 75.091553%, 78.187561%)" offset="0.375"/><stop stop-opacity="1" stop-color="rgb(74.899292%, 74.899292%, 77.798462%)" offset="0.390625"/><stop stop-opacity="1" stop-color="rgb(74.797058%, 74.797058%, 77.523804%)" offset="0.398438"/><stop stop-opacity="1" stop-color="rgb(74.591064%, 74.591064%, 77.372742%)" offset="0.40625"/><stop stop-opacity="1" stop-color="rgb(74.291992%, 74.291992%, 77.297974%)" offset="0.421875"/><stop stop-opacity="1" stop-color="rgb(73.901367%, 73.901367%, 77.101135%)" offset="0.4375"/><stop stop-opacity="1" stop-color="rgb(73.703003%, 73.703003%, 76.802063%)" offset="0.445312"/><stop stop-opacity="1" stop-color="rgb(73.695374%, 73.695374%, 76.594543%)" offset="0.453125"/><stop stop-opacity="1" stop-color="rgb(73.495483%, 73.495483%, 76.295471%)" offset="0.46875"/><stop stop-opacity="1" stop-color="rgb(73.196411%, 73.196411%, 75.996399%)" offset="0.476562"/><stop stop-opacity="1" stop-color="rgb(72.988892%, 72.988892%, 75.794983%)" offset="0.484375"/><stop stop-opacity="1" stop-color="rgb(72.691345%, 72.691345%, 75.695801%)" offset="0.5"/><stop stop-opacity="1" stop-color="rgb(72.499084%, 72.499084%, 75.498962%)" offset="0.515625"/><stop stop-opacity="1" stop-color="rgb(72.422791%, 72.422791%, 75.19989%)" offset="0.523438"/><stop stop-opacity="1" stop-color="rgb(72.267151%, 72.267151%, 74.992371%)" offset="0.53125"/><stop stop-opacity="1" stop-color="rgb(71.992493%, 71.992493%, 74.693298%)" offset="0.546875"/><stop stop-opacity="1" stop-color="rgb(71.601868%, 71.601868%, 74.302673%)" offset="0.5625"/><stop stop-opacity="1" stop-color="rgb(71.302795%, 71.302795%, 74.003601%)" offset="0.570312"/><stop stop-opacity="1" stop-color="rgb(71.098328%, 71.098328%, 73.799133%)" offset="0.578125"/><stop stop-opacity="1" stop-color="rgb(70.999146%, 70.999146%, 73.699951%)" offset="0.59375"/><stop stop-opacity="1" stop-color="rgb(70.895386%, 70.895386%, 73.596191%)" offset="0.601562"/><stop stop-opacity="1" stop-color="rgb(70.689392%, 70.689392%, 73.390198%)" offset="0.609375"/><stop stop-opacity="1" stop-color="rgb(70.39032%, 70.39032%, 73.091125%)" offset="0.625"/><stop stop-opacity="1" stop-color="rgb(69.999695%, 69.999695%, 72.7005%)" offset="0.640625"/><stop stop-opacity="1" stop-color="rgb(69.796753%, 69.796753%, 72.351074%)" offset="0.65625"/><stop stop-opacity="1" stop-color="rgb(69.593811%, 69.593811%, 72.198486%)" offset="0.671875"/><stop stop-opacity="1" stop-color="rgb(69.203186%, 69.203186%, 72.003174%)" offset="0.6875"/><stop stop-opacity="1" stop-color="rgb(68.904114%, 68.904114%, 71.704102%)" offset="0.695312"/><stop stop-opacity="1" stop-color="rgb(68.696594%, 68.696594%, 71.496582%)" offset="0.703125"/><stop stop-opacity="1" stop-color="rgb(68.397522%, 68.397522%, 71.19751%)" offset="0.71875"/><stop stop-opacity="1" stop-color="rgb(68.200684%, 68.200684%, 70.898438%)" offset="0.726562"/><stop stop-opacity="1" stop-color="rgb(68.193054%, 68.193054%, 70.697021%)" offset="0.734375"/><stop stop-opacity="1" stop-color="rgb(67.991638%, 67.991638%, 70.597839%)" offset="0.75"/><stop stop-opacity="1" stop-color="rgb(67.651367%, 67.651367%, 70.401001%)" offset="0.765625"/><stop stop-opacity="1" stop-color="rgb(67.401123%, 67.401123%, 70.101929%)" offset="0.773438"/><stop stop-opacity="1" stop-color="rgb(67.198181%, 67.198181%, 69.894409%)" offset="0.78125"/><stop stop-opacity="1" stop-color="rgb(67.098999%, 67.098999%, 69.595337%)" offset="0.796875"/><stop stop-opacity="1" stop-color="rgb(66.903687%, 66.903687%, 69.204712%)" offset="0.8125"/><stop stop-opacity="1" stop-color="rgb(66.60614%, 66.60614%, 69.003296%)" offset="0.820312"/><stop stop-opacity="1" stop-color="rgb(66.398621%, 66.398621%, 68.995667%)" offset="0.828125"/><stop stop-opacity="1" stop-color="rgb(66.099548%, 66.099548%, 68.798828%)" offset="0.84375"/><stop stop-opacity="1" stop-color="rgb(65.901184%, 65.901184%, 68.499756%)" offset="0.851562"/><stop stop-opacity="1" stop-color="rgb(65.893555%, 65.893555%, 68.292236%)" offset="0.859375"/><stop stop-opacity="1" stop-color="rgb(65.693665%, 65.693665%, 67.993164%)" offset="0.875"/><stop stop-opacity="1" stop-color="rgb(65.30304%, 65.30304%, 67.651367%)" offset="0.890625"/><stop stop-opacity="1" stop-color="rgb(65.003967%, 65.003967%, 67.501831%)" offset="0.898438"/><stop stop-opacity="1" stop-color="rgb(64.794922%, 64.794922%, 67.494202%)" offset="0.90625"/><stop stop-opacity="1" stop-color="rgb(64.49585%, 64.49585%, 67.295837%)" offset="0.921875"/><stop stop-opacity="1" stop-color="rgb(64.300537%, 64.300537%, 66.906738%)" offset="0.9375"/><stop stop-opacity="1" stop-color="rgb(64.201355%, 64.201355%, 66.607666%)" offset="0.945312"/><stop stop-opacity="1" stop-color="rgb(63.998413%, 63.998413%, 66.398621%)" offset="0.953125"/><stop stop-opacity="1" stop-color="rgb(63.699341%, 63.699341%, 66.099548%)" offset="0.96875"/><stop stop-opacity="1" stop-color="rgb(63.400269%, 63.400269%, 65.800476%)" offset="0.976562"/><stop stop-opacity="1" stop-color="rgb(63.197327%, 63.197327%, 65.597534%)" offset="0.984375"/><stop stop-opacity="1" stop-color="rgb(63.09967%, 63.09967%, 65.499878%)" offset="1"/></linearGradient></defs><g clip-path="url(#850ba44db4)"><path fill="#353b42" d="M 357.121094 356.347656 L 364.839844 356.347656 L 360.371094 338.898438 L 347.777344 338.898438 L 357.121094 356.347656 " fill-opacity="1" fill-rule="nonzero"/></g><g clip-path="url(#db0e6a2bf8)"><path fill="#353b42" d="M 64.207031 356.347656 L 56.488281 356.347656 L 60.957031 338.898438 L 73.550781 338.898438 L 64.207031 356.347656 " fill-opacity="1" fill-rule="nonzero"/></g><path fill="#9b3737" d="M 81.738281 200.820312 C 81.738281 195.734375 85.863281 191.617188 90.953125 191.617188 L 342.277344 191.617188 C 347.367188 191.617188 351.492188 195.734375 351.492188 200.820312 L 351.492188 297.644531 C 351.492188 302.726562 347.367188 306.847656 342.277344 306.847656 L 90.953125 306.847656 C 85.863281 306.847656 81.738281 302.726562 81.738281 297.644531 L 81.738281 200.820312 " fill-opacity="1" fill-rule="nonzero"/><path fill="#b23f3f" d="M 81.738281 200.820312 C 81.738281 195.734375 85.863281 191.617188 90.953125 191.617188 L 313.433594 191.617188 C 318.523438 191.617188 322.648438 195.734375 322.648438 200.820312 L 322.648438 298.457031 C 322.648438 303.539062 318.523438 307.660156 313.433594 307.660156 L 90.953125 307.660156 C 85.863281 307.660156 81.738281 303.539062 81.738281 298.457031 L 81.738281 200.820312 " fill-opacity="1" fill-rule="nonzero"/><g clip-path="url(#99c85b21d2)"><path fill="#9b3737" d="M 81.738281 329.835938 C 81.738281 334.917969 77.957031 338.898438 72.871094 338.898438 L 15.734375 338.898438 C 10.644531 338.898438 6.175781 334.917969 6.175781 329.835938 L 6.175781 233.820312 C 6.175781 228.738281 10.644531 224.484375 15.734375 224.484375 L 72.871094 224.484375 C 77.957031 224.484375 81.738281 228.738281 81.738281 233.820312 L 81.738281 329.835938 " fill-opacity="1" fill-rule="nonzero"/></g><path fill="#c44343" d="M 35.425781 287.359375 C 35.425781 282.6875 39.550781 278.902344 44.636719 278.902344 L 313.027344 278.902344 C 318.117188 278.902344 322.242188 282.6875 322.242188 287.359375 L 322.242188 298.792969 C 322.242188 303.464844 318.117188 307.253906 313.027344 307.253906 L 44.636719 307.253906 C 39.550781 307.253906 35.425781 303.464844 35.425781 298.792969 L 35.425781 287.359375 " fill-opacity="1" fill-rule="nonzero"/><path fill="#d34444" d="M 322.648438 329.636719 C 322.648438 334.714844 316.550781 338.898438 314.183594 338.898438 L 27.4375 338.898438 C 17.082031 338.898438 15.519531 334.714844 15.519531 329.636719 L 15.519531 316.386719 C 15.519531 311.308594 20.109375 307.253906 25.578125 307.253906 L 313.308594 307.253906 C 318.777344 307.253906 322.648438 311.308594 322.648438 316.386719 L 322.648438 329.636719 " fill-opacity="1" fill-rule="nonzero"/><g clip-path="url(#f0412860cf)"><path fill="#d34444" d="M 6.175781 233.683594 C 6.175781 228.601562 10.296875 224.484375 15.386719 224.484375 L 26.617188 224.484375 C 31.703125 224.484375 35.832031 228.601562 35.832031 233.683594 L 35.832031 329.699219 C 35.832031 334.78125 31.703125 338.898438 26.617188 338.898438 L 15.386719 338.898438 C 10.296875 338.898438 6.175781 334.78125 6.175781 329.699219 L 6.175781 233.683594 " fill-opacity="1" fill-rule="nonzero"/></g><g clip-path="url(#e8149a696c)"><path fill="#5d656d" d="M 311.617188 356.347656 L 319.335938 356.347656 L 314.867188 338.898438 L 302.273438 338.898438 L 311.617188 356.347656 " fill-opacity="1" fill-rule="nonzero"/></g><g clip-path="url(#9320fe0520)"><path fill="#5d656d" d="M 18.707031 356.347656 L 10.988281 356.347656 L 15.457031 338.898438 L 28.050781 338.898438 L 18.707031 356.347656 " fill-opacity="1" fill-rule="nonzero"/></g><g clip-path="url(#d5851304fd)"><path fill="#9b3737" d="M 293.398438 233.683594 C 293.398438 228.601562 297.519531 224.484375 302.609375 224.484375 L 359.746094 224.484375 C 364.839844 224.484375 368.960938 228.601562 368.960938 233.683594 L 368.960938 329.699219 C 368.960938 334.78125 364.839844 338.898438 359.746094 338.898438 L 302.609375 338.898438 C 297.519531 338.898438 293.398438 334.78125 293.398438 329.699219 L 293.398438 233.683594 " fill-opacity="1" fill-rule="nonzero"/></g><path fill="#d34444" d="M 292.992188 233.683594 C 292.992188 228.601562 297.113281 224.484375 302.203125 224.484375 L 313.433594 224.484375 C 318.523438 224.484375 322.648438 228.601562 322.648438 233.683594 L 322.648438 329.699219 C 322.648438 334.78125 318.523438 338.898438 313.433594 338.898438 L 302.203125 338.898438 C 297.113281 338.898438 292.992188 334.78125 292.992188 329.699219 L 292.992188 233.683594 " fill-opacity="1" fill-rule="nonzero"/><path fill="#a96644" d="M 196.636719 205.738281 C 196.332031 205.492188 196.066406 205.242188 195.84375 204.988281 C 195.496094 204.589844 195.238281 204.144531 195.046875 203.59375 L 195.039062 203.570312 L 195.03125 203.539062 C 194.773438 202.90625 194.644531 202.210938 194.65625 201.476562 L 194.65625 201.433594 L 194.652344 201.390625 C 194.511719 199.238281 194.792969 196.191406 195.542969 191.800781 L 195.871094 189.867188 L 195.945312 189.40625 C 198.613281 173.730469 201.371094 157.519531 203.929688 152.203125 L 203.949219 152.15625 C 203.960938 152.128906 203.976562 152.101562 203.992188 152.070312 L 204.039062 151.972656 C 204.097656 151.867188 204.15625 151.753906 204.21875 151.648438 C 205.402344 149.472656 207.441406 147.964844 209.828125 147.484375 C 211.132812 147.226562 212.503906 147.289062 213.792969 147.679688 C 214.804688 147.980469 215.726562 148.464844 216.542969 149.117188 C 218.4375 150.632812 219.5625 152.890625 219.628906 155.316406 L 219.632812 155.488281 L 219.691406 155.65625 C 219.710938 155.714844 219.730469 155.773438 219.753906 155.832031 C 219.21875 158.519531 218.675781 161.402344 218.105469 164.445312 C 214.835938 181.867188 210.359375 205.726562 202.519531 207.296875 L 202.496094 207.304688 L 202.445312 207.316406 L 202.378906 207.332031 C 202.3125 207.347656 202.25 207.363281 202.183594 207.378906 L 201.851562 207.453125 C 201.605469 207.503906 201.328125 207.535156 200.976562 207.542969 L 200.851562 207.550781 C 200.519531 207.566406 200.207031 207.585938 200.007812 207.519531 L 199.960938 207.5 C 199.914062 207.480469 199.867188 207.460938 199.8125 207.445312 L 199.703125 207.40625 L 199.671875 207.402344 C 199.539062 207.355469 199.175781 207.222656 198.6875 206.992188 C 198.605469 206.953125 198.539062 206.917969 198.472656 206.886719 L 198.433594 206.867188 L 198.28125 206.789062 L 198.230469 206.765625 C 198.070312 206.679688 197.910156 206.589844 197.757812 206.5 L 197.554688 206.378906 L 197.554688 206.375 L 197.515625 206.351562 C 197.46875 206.328125 197.425781 206.300781 197.382812 206.273438 C 197.101562 206.089844 196.859375 205.914062 196.636719 205.738281 " fill-opacity="1" fill-rule="nonzero"/><path fill="#354259" d="M 220.949219 155.746094 C 220.898438 155.582031 220.832031 155.4375 220.78125 155.285156 C 220.675781 151.363281 218.085938 147.769531 214.125 146.574219 C 212.65625 146.136719 211.09375 146.058594 209.601562 146.355469 C 206.832031 146.910156 204.527344 148.664062 203.21875 151.082031 C 203.148438 151.199219 203.078125 151.328125 203.007812 151.464844 C 202.96875 151.542969 202.925781 151.621094 202.886719 151.703125 C 200.429688 156.824219 197.832031 171.492188 195.316406 186.25 C 199.730469 187.042969 207.085938 188.289062 214 189.132812 C 216.882812 178.539062 218.960938 165.605469 220.949219 155.746094 " fill-opacity="1" fill-rule="nonzero"/><path fill="#383635" d="M 116.074219 292.042969 C 116.074219 292.042969 108.261719 292.035156 98.523438 287.894531 C 98.523438 287.894531 88.824219 271.632812 82.863281 285.511719 L 118.003906 316.734375 C 118.003906 316.734375 125.980469 310.148438 128.214844 302.96875 C 128.214844 302.96875 127.699219 301.808594 125.386719 301.867188 C 123.070312 301.925781 118.289062 298.90625 116.792969 296.378906 C 116.792969 296.378906 117.804688 292.875 116.074219 292.042969 " fill-opacity="1" fill-rule="nonzero"/><path fill="#383635" d="M 120.496094 314.4375 C 119.007812 315.9375 118.003906 316.734375 118.003906 316.734375 L 82.863281 285.511719 C 83.433594 284.183594 84.015625 283.15625 84.523438 282.476562 L 120.496094 314.4375 " fill-opacity="1" fill-rule="nonzero"/><g clip-path="url(#a42775c8e4)"><path fill="#383635" d="M 168.519531 339.15625 C 168.519531 339.15625 162.671875 344.332031 152.640625 347.691406 C 152.640625 347.691406 134.574219 341.960938 139.335938 356.292969 L 186.375 356.347656 C 186.375 356.347656 187.964844 346.128906 184.863281 339.28125 C 184.863281 339.28125 183.703125 338.753906 182.015625 340.328125 C 180.324219 341.910156 174.738281 342.824219 171.941406 341.925781 C 171.941406 341.925781 170.367188 338.632812 168.519531 339.15625 " fill-opacity="1" fill-rule="nonzero"/></g><g clip-path="url(#d848e2068e)"><path fill="#383635" d="M 186.710938 352.976562 C 186.597656 355.082031 186.375 356.347656 186.375 356.347656 L 139.335938 356.292969 C 138.882812 354.921875 138.636719 353.761719 138.5625 352.921875 L 186.710938 352.976562 " fill-opacity="1" fill-rule="nonzero"/></g><path fill="#1c2533" d="M 257.128906 278.070312 C 257.394531 278.085938 257.652344 278.117188 257.917969 278.117188 C 266.097656 278.164062 272.773438 271.578125 272.820312 263.398438 C 272.867188 255.253906 266.316406 248.609375 258.171875 248.519531 L 258.175781 248.4375 L 183.695312 253.761719 C 183.671875 253.757812 183.644531 253.757812 183.617188 253.757812 C 176.804688 253.765625 171.285156 259.285156 171.292969 266.082031 C 171.296875 272.886719 176.824219 278.394531 183.636719 278.390625 C 184.015625 278.390625 184.386719 278.367188 184.757812 278.332031 L 257.128906 278.070312 " fill-opacity="1" fill-rule="nonzero"/><path fill="#1c2533" d="M 215.007812 248.03125 C 215.007812 248.03125 206.652344 277.054688 238.179688 277.515625 L 247.121094 278.335938 C 257.539062 279.292969 265.300781 279.027344 269.226562 274.945312 C 277.113281 268.753906 275.34375 253.367188 275.34375 253.367188 C 274.984375 251 274.285156 239.707031 274.53125 238.433594 L 215.828125 236.507812 C 215.898438 237.882812 215.660156 245.503906 215.007812 248.03125 " fill-opacity="1" fill-rule="nonzero"/><path fill="#414f6d" d="M 273.496094 189.136719 C 274.074219 181.109375 279.03125 169.9375 282.5625 161.238281 C 285.8125 160.441406 288.222656 157.519531 288.222656 154.023438 C 288.222656 149.917969 282.636719 147.148438 278.746094 145.828125 C 277.582031 145.429688 276.597656 145.152344 275.761719 144.976562 C 265.859375 139.996094 250.308594 139.996094 250.308594 139.996094 L 229.773438 140.519531 C 229.773438 140.519531 218.824219 141.007812 206.128906 146.914062 C 206.128906 146.914062 206.535156 157.261719 206.644531 166.355469 C 206.710938 171.871094 211.34375 203.265625 211.207031 211 C 211.738281 216.464844 211.523438 232.898438 210.933594 241.480469 C 210.925781 241.59375 210.976562 241.699219 211.074219 241.796875 C 211.722656 243.421875 225.246094 244.722656 242.347656 244.722656 C 259.257812 244.722656 272.667969 243.453125 273.597656 241.851562 C 273.617188 241.851562 273.636719 241.847656 273.652344 241.847656 C 273.652344 241.796875 273.648438 241.734375 273.652344 241.679688 C 273.730469 236.289062 272.308594 219.894531 272.492188 214.671875 C 272.789062 206.160156 272.890625 197.636719 273.496094 189.136719 " fill-opacity="1" fill-rule="nonzero"/><path fill="#252d3a" d="M 248.777344 133.9375 L 230.535156 133.980469 L 230.113281 136.179688 L 237.351562 145.605469 L 240.777344 145.226562 L 248.351562 136.941406 L 248.777344 133.9375 " fill-opacity="1" fill-rule="nonzero"/><path fill="#914627" d="M 239.671875 150.089844 C 246.886719 149.9375 253.253906 145.140625 253.574219 140.136719 C 246.980469 139.460938 241.195312 140.097656 241.195312 140.097656 L 239.6875 140.128906 C 239.6875 140.128906 233.769531 139.796875 226.324219 140.980469 C 227.03125 145.847656 232.578125 150.238281 239.671875 150.089844 " fill-opacity="1" fill-rule="nonzero"/><path fill="#914627" d="M 246.382812 142.929688 L 232.371094 142.929688 L 232.371094 128.613281 L 246.382812 128.613281 L 246.382812 142.929688 " fill-opacity="1" fill-rule="nonzero"/><path fill="#7a361e" d="M 232.371094 130.566406 L 232.371094 134.585938 C 235.253906 135.449219 241.109375 136.992188 246.382812 137.089844 L 246.382812 130.566406 L 232.371094 130.566406 " fill-opacity="1" fill-rule="nonzero"/><path fill="#414f6d" d="M 237.433594 187.464844 C 245.222656 177.765625 254.382812 146.609375 255.925781 140.273438 C 255.4375 140.210938 250.421875 139.832031 250.421875 139.832031 L 237.605469 144.269531 L 229.773438 140.519531 C 229.773438 140.519531 224.886719 140.976562 222.714844 141.5 C 225.839844 157.417969 237.433594 187.464844 237.433594 187.464844 " fill-opacity="1" fill-rule="nonzero"/><path fill="#914627" d="M 220.015625 103.238281 C 220.015625 103.238281 213.0625 101.667969 213.839844 108.34375 C 214.617188 115.015625 221.066406 112.257812 221.066406 112.257812 L 220.015625 103.238281 " fill-opacity="1" fill-rule="nonzero"/><path fill="#a96644" d="M 253.003906 99.402344 C 253.003906 99.402344 259.414062 96.28125 260.191406 102.957031 C 260.96875 109.628906 254.054688 108.421875 254.054688 108.421875 L 253.003906 99.402344 " fill-opacity="1" fill-rule="nonzero"/><path fill="#a96644" d="M 255.007812 111.085938 C 256.28125 122.011719 249.074219 131.824219 238.921875 133.007812 C 228.761719 134.183594 219.496094 126.285156 218.222656 115.359375 L 216.175781 97.816406 C 214.90625 86.886719 222.109375 77.074219 232.265625 75.890625 C 242.421875 74.714844 251.691406 82.613281 252.964844 93.539062 L 255.007812 111.085938 " fill-opacity="1" fill-rule="nonzero"/><path fill="#914627" d="M 247.667969 95.390625 L 248.914062 93.816406 C 248.914062 93.816406 248.347656 97.867188 253.71875 100 L 252.964844 93.539062 C 251.691406 82.613281 242.421875 74.714844 232.265625 75.890625 C 222.109375 77.074219 214.90625 86.886719 216.175781 97.816406 L 216.628906 101.660156 C 223.425781 101.71875 237.316406 101.050781 247.667969 95.390625 " fill-opacity="1" fill-rule="nonzero"/><path fill="#914627" d="M 249.539062 84.222656 C 250.929688 86.628906 251.886719 89.367188 252.234375 92.34375 L 254.28125 109.890625 C 255.550781 120.816406 248.351562 130.632812 238.191406 131.8125 C 231.265625 132.617188 224.761719 129.195312 220.917969 123.484375 C 224.628906 129.902344 231.53125 133.863281 238.921875 133.007812 C 249.074219 131.824219 256.28125 122.011719 255.007812 111.085938 L 252.964844 93.539062 C 252.558594 90.058594 251.335938 86.890625 249.539062 84.222656 " fill-opacity="1" fill-rule="nonzero"/><path fill="#333332" d="M 241.859375 83.546875 C 241.984375 83.089844 246.097656 83.707031 246.59375 83.910156 C 248.679688 84.789062 249.625 87.476562 250.109375 89.382812 C 250.71875 91.8125 250.886719 94.03125 250.789062 96.53125 C 250.554688 102.53125 253.917969 107.6875 254.613281 108.96875 C 254.769531 107.695312 254.914062 106.417969 255.089844 105.144531 C 255.617188 101.238281 257.074219 98.546875 258.617188 95.09375 C 260.308594 91.308594 260.011719 85.4375 257.902344 81.9375 C 256.679688 79.902344 255.734375 78.761719 253.570312 77.722656 C 253.570312 77.722656 244.535156 73.398438 241.859375 83.546875 " fill-opacity="1" fill-rule="nonzero"/><path fill="#1e1e1e" d="M 236.34375 83.273438 C 236.34375 83.273438 229.714844 84.753906 224.90625 85.316406 C 224.90625 85.316406 232.070312 77.078125 236.34375 83.273438 " fill-opacity="1" fill-rule="nonzero"/><path fill="#474747" d="M 216.03125 85.839844 C 216.03125 85.839844 214.355469 88.46875 214.96875 92.859375 C 215.582031 97.25 216.929688 104.902344 216.929688 104.902344 C 216.929688 104.902344 215.992188 90.761719 218.417969 86.273438 L 216.03125 85.839844 " fill-opacity="1" fill-rule="nonzero"/><path fill="#333332" d="M 249.546875 77.179688 C 249.546875 77.179688 245.144531 68.15625 236.824219 69.933594 C 228.5 71.710938 222.167969 73.15625 220.910156 72.796875 C 220.910156 72.796875 218.59375 72.964844 218.695312 75.589844 C 218.695312 75.589844 212.558594 77.824219 214.675781 84.679688 C 214.675781 84.679688 215.855469 86.972656 216.949219 86.746094 C 216.949219 86.746094 216.765625 87.375 217.847656 87.050781 C 217.847656 87.050781 222.210938 93.132812 228.128906 91.632812 C 228.128906 91.632812 225.222656 89.335938 225.589844 85.539062 C 225.871094 82.683594 232.484375 79.769531 236.34375 83.273438 C 236.34375 83.273438 240.382812 83.921875 241.859375 83.546875 C 241.859375 83.546875 248.203125 82.203125 249.546875 77.179688 " fill-opacity="1" fill-rule="nonzero"/><path fill="#502f26" d="M 225.777344 108.449219 C 225.949219 109.917969 225.5 111.171875 224.773438 111.257812 C 224.042969 111.34375 223.316406 110.222656 223.144531 108.757812 C 222.972656 107.285156 223.421875 106.03125 224.152344 105.945312 C 224.878906 105.863281 225.605469 106.980469 225.777344 108.449219 " fill-opacity="1" fill-rule="nonzero"/><path fill="#502f26" d="M 243.839844 106.351562 C 244.011719 107.820312 243.558594 109.074219 242.832031 109.160156 C 242.105469 109.246094 241.375 108.121094 241.203125 106.660156 C 241.035156 105.1875 241.484375 103.933594 242.210938 103.847656 C 242.9375 103.761719 243.667969 104.878906 243.839844 106.351562 " fill-opacity="1" fill-rule="nonzero"/><path fill="#b20b0b" d="M 229.804688 119.085938 L 242.339844 117.628906 C 242.339844 117.628906 243.578125 117.449219 242.90625 119.464844 C 242.492188 120.734375 241.261719 123.417969 236.949219 124.035156 C 231.835938 124.765625 229.597656 120.898438 229.597656 120.898438 C 229.597656 120.898438 228.542969 119.234375 229.804688 119.085938 " fill-opacity="1" fill-rule="nonzero"/><path fill="#ffffff" d="M 243.058594 118.90625 C 243.324219 117.488281 242.339844 117.628906 242.339844 117.628906 L 229.804688 119.085938 C 228.859375 119.199219 229.210938 120.152344 229.445312 120.636719 C 231.933594 120.984375 236.945312 121.183594 243.058594 118.90625 " fill-opacity="1" fill-rule="nonzero"/><path fill="#914627" d="M 232.949219 110.722656 C 232.949219 110.722656 229.921875 110.964844 230.21875 113.535156 C 230.519531 116.109375 235.113281 114.902344 235.035156 112.976562 C 234.960938 111.046875 233.574219 96.914062 232.949219 110.722656 " fill-opacity="1" fill-rule="nonzero"/><path fill="#502f26" d="M 244.140625 100.75 C 243.277344 100.578125 242.402344 100.542969 241.542969 100.644531 C 240.683594 100.742188 239.839844 100.976562 239.042969 101.34375 C 238.742188 101.480469 238.394531 101.347656 238.261719 101.054688 C 238.125 100.757812 238.253906 100.410156 238.550781 100.273438 C 239.460938 99.855469 240.425781 99.585938 241.40625 99.472656 C 242.390625 99.359375 243.390625 99.398438 244.371094 99.597656 C 244.691406 99.664062 244.902344 99.972656 244.835938 100.289062 C 244.78125 100.546875 244.570312 100.730469 244.324219 100.757812 C 244.261719 100.765625 244.203125 100.765625 244.140625 100.75 " fill-opacity="1" fill-rule="nonzero"/><path fill="#502f26" d="M 219.027344 103.289062 C 218.890625 102.996094 219.019531 102.644531 219.316406 102.507812 C 220.226562 102.089844 221.191406 101.824219 222.171875 101.710938 C 223.15625 101.59375 224.152344 101.632812 225.136719 101.832031 C 225.457031 101.898438 225.664062 102.207031 225.601562 102.527344 C 225.535156 102.84375 225.222656 103.050781 224.902344 102.988281 C 224.046875 102.8125 223.167969 102.777344 222.308594 102.878906 C 221.449219 102.976562 220.605469 103.214844 219.808594 103.582031 C 219.75 103.605469 219.691406 103.621094 219.628906 103.628906 C 219.382812 103.65625 219.136719 103.527344 219.027344 103.289062 " fill-opacity="1" fill-rule="nonzero"/><path fill="#914627" d="M 253.492188 111.421875 C 253.597656 112.324219 251.671875 113.289062 249.191406 113.578125 C 246.714844 113.867188 244.617188 113.367188 244.511719 112.464844 C 244.410156 111.566406 246.332031 110.605469 248.8125 110.3125 C 251.289062 110.027344 253.386719 110.523438 253.492188 111.421875 " fill-opacity="1" fill-rule="nonzero"/><path fill="#914627" d="M 226.253906 114.585938 C 226.316406 115.109375 225.199219 115.667969 223.765625 115.835938 C 222.335938 116 221.121094 115.710938 221.0625 115.191406 C 221 114.671875 222.117188 114.113281 223.546875 113.949219 C 224.980469 113.78125 226.195312 114.070312 226.253906 114.585938 " fill-opacity="1" fill-rule="nonzero"/><path fill="#444444" d="M 241.71875 82.851562 C 241.570312 82.796875 241.492188 82.632812 241.550781 82.480469 C 243.394531 77.453125 249.054688 76.957031 249.082031 76.949219 C 249.238281 76.933594 249.382812 77.050781 249.398438 77.210938 C 249.410156 77.371094 249.292969 77.515625 249.132812 77.527344 C 249.132812 77.53125 248.8125 77.554688 248.28125 77.675781 C 247.746094 77.796875 247.019531 78.007812 246.242188 78.363281 C 244.683594 79.074219 242.9375 80.355469 242.09375 82.679688 C 242.054688 82.796875 241.941406 82.871094 241.820312 82.871094 C 241.789062 82.871094 241.753906 82.867188 241.71875 82.851562 " fill-opacity="1" fill-rule="nonzero"/><path fill="#444444" d="M 218.398438 86.5625 C 218.238281 86.550781 218.117188 86.414062 218.125 86.253906 C 218.3125 83.238281 219.71875 81.363281 221.585938 80.304688 C 223.449219 79.238281 225.746094 78.953125 227.796875 78.949219 C 229.054688 78.949219 230.21875 79.058594 231.136719 79.179688 C 235.09375 79.691406 237.8125 81.726562 237.835938 81.742188 C 237.960938 81.835938 237.992188 82.015625 237.894531 82.144531 C 237.796875 82.277344 237.617188 82.300781 237.488281 82.207031 C 237.484375 82.207031 236.84375 81.722656 235.707031 81.171875 C 234.570312 80.617188 232.957031 80.003906 231.058594 79.757812 C 230.160156 79.640625 229.019531 79.53125 227.796875 79.53125 C 225.800781 79.53125 223.59375 79.824219 221.875 80.808594 C 220.15625 81.800781 218.898438 83.441406 218.707031 86.292969 C 218.695312 86.445312 218.566406 86.5625 218.417969 86.5625 C 218.410156 86.5625 218.40625 86.5625 218.398438 86.5625 " fill-opacity="1" fill-rule="nonzero"/><path fill="#444444" d="M 234.546875 79.273438 C 230.804688 76.3125 227.070312 75.574219 224.25 75.574219 C 222.820312 75.574219 221.625 75.765625 220.792969 75.957031 C 219.957031 76.148438 219.492188 76.332031 219.492188 76.332031 C 219.34375 76.394531 219.171875 76.320312 219.117188 76.171875 C 219.054688 76.023438 219.128906 75.855469 219.277344 75.792969 C 219.300781 75.785156 221.285156 74.992188 224.25 74.992188 C 227.167969 74.992188 231.054688 75.765625 234.914062 78.816406 C 235.035156 78.917969 235.058594 79.101562 234.957031 79.226562 C 234.898438 79.300781 234.8125 79.339844 234.726562 79.339844 C 234.667969 79.339844 234.601562 79.316406 234.546875 79.273438 " fill-opacity="1" fill-rule="nonzero"/><path fill="#444444" d="M 246.25 76.058594 C 244.476562 73.140625 242.144531 72.277344 239.722656 72.265625 C 237.636719 72.265625 235.5 72.945312 233.753906 73.589844 C 232.195312 74.160156 230.140625 74.324219 228.214844 74.324219 C 225.265625 74.324219 222.613281 73.929688 222.605469 73.929688 C 222.445312 73.90625 222.335938 73.757812 222.359375 73.601562 C 222.386719 73.4375 222.53125 73.332031 222.691406 73.351562 C 222.695312 73.351562 225.316406 73.738281 228.214844 73.738281 C 230.105469 73.742188 232.117188 73.570312 233.554688 73.042969 C 235.320312 72.394531 237.511719 71.6875 239.722656 71.6875 C 242.28125 71.675781 244.890625 72.667969 246.746094 75.757812 C 246.832031 75.894531 246.785156 76.074219 246.648438 76.160156 C 246.601562 76.1875 246.550781 76.199219 246.496094 76.199219 C 246.398438 76.199219 246.304688 76.148438 246.25 76.058594 " fill-opacity="1" fill-rule="nonzero"/><path fill="#444444" d="M 252.976562 103.449219 C 251.800781 101.253906 251.503906 98.871094 251.503906 96.496094 C 251.503906 94.035156 251.820312 91.582031 251.820312 89.34375 C 251.820312 88.152344 251.734375 87.023438 251.46875 85.988281 C 250.597656 82.519531 247.503906 82.0625 245.808594 82.050781 C 245.183594 82.050781 244.785156 82.117188 244.78125 82.117188 C 244.625 82.144531 244.472656 82.039062 244.445312 81.878906 C 244.421875 81.71875 244.53125 81.574219 244.6875 81.542969 C 244.699219 81.542969 245.140625 81.472656 245.808594 81.472656 C 247.566406 81.457031 251.0625 82 252.035156 85.84375 C 252.316406 86.949219 252.402344 88.125 252.402344 89.34375 C 252.402344 91.632812 252.085938 94.082031 252.089844 96.496094 C 252.089844 98.824219 252.378906 101.101562 253.492188 103.171875 C 253.570312 103.3125 253.515625 103.488281 253.371094 103.566406 C 253.332031 103.589844 253.28125 103.601562 253.234375 103.601562 C 253.128906 103.601562 253.027344 103.546875 252.976562 103.449219 " fill-opacity="1" fill-rule="nonzero"/><path fill="#354259" d="M 252.503906 139.992188 L 248.777344 133.9375 L 237.859375 144.167969 L 245.308594 150.929688 L 252.503906 139.992188 " fill-opacity="1" fill-rule="nonzero"/><path fill="#354259" d="M 237.859375 144.167969 L 232.273438 150.253906 L 226.53125 140.875 L 230.535156 133.980469 L 237.859375 144.167969 " fill-opacity="1" fill-rule="nonzero"/><path fill="#f0f0f0" d="M 230.519531 162.824219 L 213.863281 162.824219 L 213.863281 159.578125 L 230.519531 159.578125 L 230.519531 162.824219 " fill-opacity="1" fill-rule="nonzero"/><path fill="#354259" d="M 211.085938 165.34375 L 232.617188 165.34375 L 232.441406 171.4375 C 232.441406 171.4375 222.75 175.914062 221.132812 175.199219 C 219.519531 174.484375 211.085938 171.257812 211.085938 171.257812 L 211.085938 165.34375 " fill-opacity="1" fill-rule="nonzero"/><path fill="#354259" d="M 248.867188 165.34375 L 270.398438 165.34375 L 270.222656 171.4375 C 270.222656 171.4375 260.53125 175.914062 258.917969 175.199219 C 257.300781 174.484375 248.867188 171.257812 248.867188 171.257812 L 248.867188 165.34375 " fill-opacity="1" fill-rule="nonzero"/><path fill="#f7ea92" d="M 258.429688 168.75 C 258.429688 168.75 255.988281 168.140625 255.742188 166.054688 C 255.492188 163.964844 255.636719 160.390625 255.636719 160.390625 C 255.636719 160.390625 257.734375 161.003906 259.546875 159.082031 C 259.546875 159.082031 262.066406 161.171875 263.746094 160.894531 L 262.980469 166.609375 C 262.980469 166.609375 262.421875 169.582031 258.429688 168.75 " fill-opacity="1" fill-rule="nonzero"/><path fill="#354259" d="M 224.097656 141.730469 L 206.847656 147.019531 L 206.371094 145.46875 L 223.621094 140.179688 L 224.097656 141.730469 " fill-opacity="1" fill-rule="nonzero"/><path fill="#2d435e" d="M 212.832031 84.851562 C 212.832031 84.851562 206.753906 79.660156 207.097656 76.675781 C 207.4375 73.6875 210.375 69.617188 210.375 69.617188 C 210.375 69.617188 221.371094 63.886719 224.773438 59.203125 C 224.773438 59.203125 226.660156 56.382812 230.257812 59.007812 C 234.226562 61.902344 244.773438 65.300781 249.496094 65.855469 C 249.496094 65.855469 251.78125 66.070312 252.597656 67.160156 C 252.597656 67.160156 260.59375 75.867188 264.96875 78.792969 C 264.96875 78.792969 271.0625 83.433594 259.90625 87.578125 L 212.832031 84.851562 " fill-opacity="1" fill-rule="nonzero"/><path fill="#25384c" d="M 226.671875 57.964844 C 227.5625 57.765625 228.761719 57.914062 230.257812 59.007812 C 234.226562 61.902344 244.773438 65.300781 249.496094 65.855469 C 249.496094 65.855469 251.78125 66.070312 252.597656 67.160156 C 252.597656 67.160156 260.59375 75.867188 264.96875 78.792969 C 264.96875 78.792969 271.0625 83.433594 259.90625 87.578125 L 229.882812 85.839844 C 227.804688 75.664062 226.953125 63.199219 226.671875 57.964844 " fill-opacity="1" fill-rule="nonzero"/><path fill="#354c6d" d="M 259.5 92.191406 L 214.652344 92.488281 L 212.359375 82.734375 C 212.359375 82.734375 238.09375 71.894531 260.128906 85.046875 L 259.5 92.191406 " fill-opacity="1" fill-rule="nonzero"/><path fill="#262628" d="M 214.652344 92.488281 C 214.652344 92.488281 200.082031 98.347656 213.453125 99.460938 C 226.824219 100.574219 248.847656 94.097656 249.996094 92.253906 C 249.996094 92.253906 224.574219 91.207031 214.652344 92.488281 " fill-opacity="1" fill-rule="nonzero"/><path fill="#727272" d="M 214.074219 98.152344 C 215.9375 96.734375 217.726562 95.25 219.386719 93.601562 C 219.898438 93.09375 220.371094 92.554688 220.863281 92.03125 C 222.871094 91.945312 225.050781 91.898438 227.285156 91.878906 C 221.894531 94.511719 217.941406 97.433594 215.441406 99.582031 C 214.730469 99.5625 214.03125 99.527344 213.359375 99.46875 C 213.027344 99.445312 212.710938 99.414062 212.410156 99.378906 C 212.972656 98.976562 213.527344 98.570312 214.074219 98.152344 " fill-opacity="1" fill-rule="nonzero"/><path fill="#f4cf34" d="M 229.378906 85.527344 C 229.378906 85.527344 235.351562 84.539062 233.847656 75.875 C 233.847656 75.875 230.898438 75.875 228.019531 73.886719 C 228.019531 73.886719 226.160156 76.144531 223.003906 76.953125 C 223.003906 76.953125 222.78125 85.117188 229.378906 85.527344 " fill-opacity="1" fill-rule="nonzero"/><path fill="#f4df87" d="M 227.6875 74.242188 L 233.855469 80.730469 C 233.308594 83.152344 231.910156 84.375 230.816406 84.976562 L 223.136719 76.914062 C 225.441406 76.289062 227.039062 74.898438 227.6875 74.242188 " fill-opacity="1" fill-rule="nonzero"/><path fill="#354259" d="M 237.25 239.097656 L 237.25 144.730469 C 237.25 144.394531 237.519531 144.121094 237.859375 144.121094 C 238.195312 144.121094 238.46875 144.394531 238.46875 144.730469 L 238.46875 239.097656 C 238.46875 239.4375 238.195312 239.707031 237.859375 239.707031 C 237.519531 239.707031 237.25 239.4375 237.25 239.097656 " fill-opacity="1" fill-rule="nonzero"/><path fill="#354259" d="M 244.121094 160.632812 C 244.121094 161.640625 243.300781 162.460938 242.292969 162.460938 C 241.28125 162.460938 240.464844 161.640625 240.464844 160.632812 C 240.464844 159.625 241.28125 158.808594 242.292969 158.808594 C 243.300781 158.808594 244.121094 159.625 244.121094 160.632812 " fill-opacity="1" fill-rule="nonzero"/><path fill="#354259" d="M 244.121094 181.328125 C 244.121094 182.335938 243.300781 183.152344 242.292969 183.152344 C 241.28125 183.152344 240.464844 182.335938 240.464844 181.328125 C 240.464844 180.316406 241.28125 179.5 242.292969 179.5 C 243.300781 179.5 244.121094 180.316406 244.121094 181.328125 " fill-opacity="1" fill-rule="nonzero"/><path fill="#354259" d="M 244.121094 202.019531 C 244.121094 203.027344 243.300781 203.84375 242.292969 203.84375 C 241.28125 203.84375 240.464844 203.027344 240.464844 202.019531 C 240.464844 201.011719 241.28125 200.191406 242.292969 200.191406 C 243.300781 200.191406 244.121094 201.011719 244.121094 202.019531 " fill-opacity="1" fill-rule="nonzero"/><path fill="#354259" d="M 244.121094 222.710938 C 244.121094 223.71875 243.300781 224.535156 242.292969 224.535156 C 241.28125 224.535156 240.464844 223.71875 240.464844 222.710938 C 240.464844 221.703125 241.28125 220.886719 242.292969 220.886719 C 243.300781 220.886719 244.121094 221.703125 244.121094 222.710938 " fill-opacity="1" fill-rule="nonzero"/><path fill="#354259" d="M 277.320312 145.480469 L 257.644531 140.4375 L 258.046875 138.863281 L 277.722656 143.910156 L 277.320312 145.480469 " fill-opacity="1" fill-rule="nonzero"/><path fill="#000000" d="M 274.050781 246.152344 L 210.671875 246.152344 L 210.882812 236.75 L 274.089844 236.75 L 274.050781 246.152344 " fill-opacity="1" fill-rule="nonzero"/><path fill="#f0f0f0" d="M 247.996094 244.730469 C 247.996094 245.433594 247.425781 246 246.726562 246 L 235.820312 246 C 235.117188 246 234.546875 245.433594 234.546875 244.730469 L 234.546875 238.019531 C 234.546875 237.316406 235.117188 236.75 235.820312 236.75 L 246.726562 236.75 C 247.425781 236.75 247.996094 237.316406 247.996094 238.019531 L 247.996094 244.730469 " fill-opacity="1" fill-rule="nonzero"/><path fill="#2b3649" d="M 254.175781 277.882812 C 254.417969 277.972656 254.65625 278.078125 254.910156 278.15625 C 262.710938 280.632812 271.042969 276.328125 273.527344 268.535156 C 276 260.773438 272.9375 249.5625 265.1875 247.054688 L 264.375 246.851562 L 183.003906 230.695312 C 182.976562 230.6875 182.953125 230.675781 182.925781 230.667969 C 176.421875 228.648438 169.507812 232.277344 167.488281 238.773438 C 165.46875 245.269531 169.097656 252.171875 175.605469 254.191406 C 175.96875 254.304688 176.332031 254.390625 176.695312 254.46875 L 254.175781 277.882812 " fill-opacity="1" fill-rule="nonzero"/><path fill="#2b3649" d="M 130.074219 305.507812 L 186.734375 251.691406 C 186.738281 251.683594 186.742188 251.679688 186.75 251.675781 C 191.769531 247.082031 192.117188 239.292969 187.515625 234.273438 C 182.910156 229.257812 175.109375 228.917969 170.089844 233.511719 C 169.617188 233.941406 169.199219 234.410156 168.808594 234.894531 L 114.875 289.445312 C 114.808594 289.484375 114.734375 289.523438 114.671875 289.582031 C 114.585938 289.667969 114.507812 289.769531 114.449219 289.882812 L 114.242188 290.089844 L 114.332031 290.175781 C 113.792969 292.003906 115.960938 296.101562 119.664062 299.996094 C 123.839844 304.398438 128.382812 306.875 129.808594 305.527344 C 129.855469 305.480469 129.890625 305.425781 129.929688 305.371094 L 130.074219 305.507812 " fill-opacity="1" fill-rule="nonzero"/><path fill="#8c8c8c" d="M 266.347656 247.605469 C 265.539062 247.605469 264.878906 246.949219 264.878906 246.144531 C 264.878906 245.335938 265.539062 244.679688 266.347656 244.679688 C 267.15625 244.679688 267.808594 245.335938 267.808594 246.144531 C 267.808594 246.949219 267.15625 247.605469 266.347656 247.605469 Z M 266.347656 244.152344 C 265.246094 244.152344 264.351562 245.046875 264.351562 246.144531 C 264.351562 247.246094 265.246094 248.136719 266.347656 248.136719 C 267.449219 248.136719 268.339844 247.246094 268.339844 246.144531 C 268.339844 245.046875 267.449219 244.152344 266.347656 244.152344 " fill-opacity="1" fill-rule="nonzero"/><path fill="#cfcfcf" d="M 266.207031 247.515625 C 265.398438 247.515625 264.742188 246.863281 264.742188 246.054688 C 264.742188 245.246094 265.398438 244.589844 266.207031 244.589844 C 267.015625 244.589844 267.671875 245.246094 267.671875 246.054688 C 267.671875 246.863281 267.015625 247.515625 266.207031 247.515625 Z M 266.207031 244.0625 C 265.109375 244.0625 264.214844 244.953125 264.214844 246.054688 C 264.214844 247.152344 265.109375 248.042969 266.207031 248.042969 C 267.308594 248.042969 268.199219 247.152344 268.199219 246.054688 C 268.199219 244.953125 267.308594 244.0625 266.207031 244.0625 " fill-opacity="1" fill-rule="nonzero"/><path fill="#8c8c8c" d="M 271.796875 250.730469 C 271.445312 249.09375 270.871094 247.980469 270.828125 246.3125 C 270.824219 246.207031 270.734375 246.117188 270.625 246.117188 L 262.617188 246.117188 C 262.507812 246.117188 262.417969 246.207031 262.414062 246.3125 C 262.371094 247.980469 261.796875 249.097656 261.445312 250.730469 C 261.152344 250.898438 260.863281 251.085938 260.585938 251.285156 C 258.996094 252.433594 257.75 254.027344 257.023438 255.878906 C 257.566406 256.699219 258.496094 257.246094 259.554688 257.253906 C 260.089844 255.652344 261.160156 254.292969 262.558594 253.382812 C 263.726562 252.621094 265.121094 252.175781 266.621094 252.175781 C 270.734375 252.175781 274.074219 255.507812 274.074219 259.625 C 274.074219 261.996094 272.960938 264.109375 271.226562 265.472656 C 269.988281 266.453125 268.425781 267.039062 266.726562 267.0625 C 266.613281 267.386719 266.550781 267.730469 266.550781 268.089844 C 266.550781 268.765625 266.769531 269.390625 267.140625 269.898438 C 269.210938 269.796875 271.121094 269.078125 272.695312 267.929688 C 275.253906 266.058594 276.921875 263.039062 276.921875 259.625 C 276.921875 255.824219 274.863281 252.511719 271.796875 250.730469 " fill-opacity="1" fill-rule="nonzero"/><path fill="#8c8c8c" d="M 266.726562 267.0625 C 266.691406 267.0625 266.65625 267.066406 266.621094 267.066406 C 262.503906 267.066406 259.167969 263.734375 259.167969 259.625 C 259.167969 258.796875 259.304688 258 259.554688 257.253906 C 258.496094 257.246094 257.566406 256.699219 257.023438 255.878906 C 257.390625 254.953125 256.320312 257.246094 256.320312 259.625 C 256.320312 265.304688 260.933594 269.910156 266.621094 269.910156 C 266.792969 269.910156 266.96875 269.90625 267.140625 269.898438 C 266.769531 269.390625 266.550781 268.765625 266.550781 268.089844 C 266.550781 267.730469 266.613281 267.386719 266.726562 267.0625 " fill-opacity="1" fill-rule="nonzero"/><path fill="#cfcfcf" d="M 271.058594 250.730469 C 270.707031 249.09375 270.132812 247.980469 270.089844 246.3125 C 270.089844 246.207031 270 246.117188 269.886719 246.117188 L 261.882812 246.117188 C 261.769531 246.117188 261.679688 246.207031 261.679688 246.3125 C 261.632812 247.980469 261.058594 249.097656 260.710938 250.730469 C 260.410156 250.898438 260.125 251.085938 259.851562 251.285156 C 258.261719 252.433594 257.015625 254.027344 256.289062 255.878906 C 256.832031 256.699219 257.761719 257.246094 258.816406 257.253906 C 259.355469 255.652344 260.425781 254.292969 261.820312 253.382812 C 262.988281 252.621094 264.386719 252.175781 265.882812 252.175781 C 270 252.175781 273.339844 255.507812 273.339844 259.625 C 273.339844 261.996094 272.222656 264.109375 270.492188 265.472656 C 269.246094 266.453125 267.6875 267.039062 265.992188 267.0625 C 265.875 267.386719 265.8125 267.730469 265.8125 268.089844 C 265.8125 268.765625 266.03125 269.390625 266.402344 269.898438 C 268.472656 269.796875 270.382812 269.078125 271.953125 267.929688 C 274.519531 266.058594 276.1875 263.039062 276.1875 259.625 C 276.1875 255.824219 274.121094 252.511719 271.058594 250.730469 " fill-opacity="1" fill-rule="nonzero"/><path fill="#bdbdbd" d="M 265.992188 267.0625 C 265.957031 267.0625 265.921875 267.066406 265.882812 267.066406 C 261.765625 267.066406 258.429688 263.734375 258.429688 259.625 C 258.429688 258.796875 258.566406 258 258.816406 257.253906 C 257.761719 257.246094 256.832031 256.699219 256.289062 255.878906 C 256.648438 254.953125 255.582031 257.246094 255.582031 259.625 C 255.582031 265.304688 260.195312 269.910156 265.882812 269.910156 C 266.058594 269.910156 266.230469 269.90625 266.402344 269.898438 C 266.03125 269.390625 265.8125 268.765625 265.8125 268.089844 C 265.8125 267.730469 265.875 267.386719 265.992188 267.0625 " fill-opacity="1" fill-rule="nonzero"/><path fill="#9e9e9e" d="M 266.808594 247.917969 C 266.808594 247.425781 266.410156 247.027344 265.921875 247.027344 C 265.425781 247.027344 265.03125 247.425781 265.03125 247.917969 C 265.03125 248.28125 265.246094 248.59375 265.554688 248.730469 L 265.554688 249.875 C 265.554688 249.976562 265.640625 250.058594 265.742188 250.058594 L 266.097656 250.058594 C 266.199219 250.058594 266.28125 249.976562 266.28125 249.875 L 266.28125 248.730469 C 266.59375 248.59375 266.808594 248.28125 266.808594 247.917969 " fill-opacity="1" fill-rule="nonzero"/><path fill="#8c8c8c" d="M 265.921875 247.027344 C 265.859375 247.027344 265.804688 247.03125 265.75 247.046875 C 266.164062 247.121094 266.472656 247.484375 266.472656 247.917969 C 266.472656 248.28125 266.257812 248.59375 265.945312 248.730469 L 265.945312 249.875 C 265.945312 249.976562 265.859375 250.058594 265.757812 250.058594 L 266.097656 250.058594 C 266.199219 250.058594 266.28125 249.976562 266.28125 249.875 L 266.28125 248.730469 C 266.59375 248.59375 266.808594 248.28125 266.808594 247.917969 C 266.808594 247.425781 266.410156 247.027344 265.921875 247.027344 " fill-opacity="1" fill-rule="nonzero"/><path fill="#1c2533" d="M 188.042969 340.1875 L 195.683594 268 C 195.683594 267.992188 195.6875 267.984375 195.6875 267.980469 C 196.527344 261.230469 191.730469 255.078125 184.972656 254.238281 C 178.210938 253.398438 172.046875 258.195312 171.210938 264.9375 C 171.128906 265.578125 171.117188 266.203125 171.132812 266.824219 L 166.042969 337.800781 C 166.015625 337.875 165.984375 337.957031 165.980469 338.035156 C 165.964844 338.160156 165.972656 338.285156 166 338.410156 L 165.980469 338.703125 L 166.101562 338.710938 C 166.878906 340.449219 171.191406 342.160156 176.539062 342.734375 C 182.578125 343.378906 187.644531 342.320312 187.851562 340.371094 C 187.859375 340.304688 187.847656 340.238281 187.84375 340.175781 L 188.042969 340.1875 " fill-opacity="1" fill-rule="nonzero"/><path fill="#a96644" d="M 230.609375 218.6875 C 230.851562 215.222656 226.757812 214.351562 226.757812 214.351562 L 215.652344 211.292969 C 214.417969 211.003906 214.324219 211.679688 213.851562 211.351562 C 212.863281 210.660156 212.472656 211.480469 211.992188 211.265625 C 210.898438 210.765625 210.746094 211.375 210.429688 211.261719 C 209.367188 210.890625 208.960938 210.785156 207.34375 211.664062 C 206.859375 211.925781 202.902344 214.421875 201.902344 215.128906 C 199.855469 216.5625 198.519531 217.085938 198.449219 217.242188 C 198.367188 217.4375 198.429688 220.03125 203.570312 217.113281 C 204.886719 216.367188 206.179688 215.609375 208.320312 214.796875 C 207.660156 215.8125 206.285156 217.496094 205.25 219.023438 C 203.660156 221.355469 202.695312 222.0625 202.757812 222.628906 C 202.78125 222.839844 204.367188 224.148438 207.132812 220.46875 C 207.636719 219.796875 208.234375 219.082031 208.730469 218.527344 C 208.355469 219.417969 208.152344 219.769531 207.917969 220.320312 C 207.078125 222.289062 205.632812 223.667969 205.847656 224.101562 C 205.96875 224.347656 207.867188 225.367188 209.757812 221.875 C 210.273438 220.921875 210.777344 219.984375 211.109375 219.425781 C 210.898438 220.289062 210.785156 220.511719 210.691406 221.035156 C 210.285156 223.277344 209.792969 224.1875 209.941406 224.402344 C 210.148438 224.703125 211.789062 224.992188 212.730469 221.667969 C 213.039062 220.585938 213.589844 218.871094 214.167969 217.539062 C 214.167969 217.539062 217.320312 220.785156 217.113281 221.878906 C 216.929688 222.851562 215.238281 223.796875 213.28125 224.96875 C 211.066406 226.285156 209.867188 228.464844 211.382812 230.003906 C 211.761719 230.386719 212.382812 228.84375 214.855469 227.832031 C 216.902344 226.992188 218.757812 226.203125 219.882812 226.035156 C 225.898438 225.15625 225.660156 223.796875 226.984375 223.320312 C 226.984375 223.320312 230.257812 223.65625 230.609375 218.6875 " fill-opacity="1" fill-rule="nonzero"/><path fill="#a96644" d="M 211.109375 219.425781 C 211.109375 219.425781 212.664062 214.820312 212.496094 214.1875 C 212.328125 213.550781 211.109375 219.425781 211.109375 219.425781 " fill-opacity="1" fill-rule="nonzero"/><path fill="#a96644" d="M 208.730469 218.527344 C 208.730469 218.527344 210.738281 214.882812 210.792969 214.152344 C 210.851562 213.429688 208.730469 218.527344 208.730469 218.527344 " fill-opacity="1" fill-rule="nonzero"/><path fill="#a96644" d="M 208.320312 214.796875 C 208.320312 214.796875 209.644531 213.296875 209.488281 213.085938 C 209.335938 212.867188 204.722656 216.464844 204.722656 216.464844 C 204.722656 216.464844 206.796875 215.265625 208.320312 214.796875 " fill-opacity="1" fill-rule="nonzero"/><g clip-path="url(#923829537e)"><g clip-path="url(#91ec38ad65)"><g clip-path="url(#5719ee0b98)"><path fill="url(#912d5bd505)" d="M 151.527344 231.796875 L 220.765625 231.796875 L 220.765625 185.003906 L 151.527344 185.003906 Z M 151.527344 231.796875 " fill-rule="nonzero"/></g></g></g><path fill="#acacb7" d="M 216.683594 185.003906 L 219.644531 185.003906 L 222.957031 228.839844 L 250.59375 228.894531 L 250.59375 231.621094 L 220.679688 231.765625 L 216.683594 185.003906 " fill-opacity="1" fill-rule="nonzero"/><path fill="#ffffff" d="M 188.117188 198.347656 C 188.515625 201.519531 186.972656 204.328125 184.671875 204.613281 C 182.367188 204.910156 180.167969 202.574219 179.769531 199.402344 C 179.367188 196.230469 180.914062 193.421875 183.214844 193.132812 C 185.519531 192.84375 187.714844 195.179688 188.117188 198.347656 " fill-opacity="1" fill-rule="nonzero"/><path fill="#a96644" d="M 262.949219 206.039062 C 262.652344 205.789062 262.398438 205.523438 262.1875 205.265625 C 261.847656 204.851562 261.609375 204.398438 261.441406 203.839844 L 261.421875 203.789062 C 261.1875 203.144531 261.085938 202.445312 261.121094 201.710938 L 261.121094 201.625 C 261.058594 199.46875 261.453125 196.433594 262.359375 192.070312 L 262.757812 190.152344 L 262.847656 189.699219 C 266.082031 174.128906 269.425781 158.023438 272.171875 152.804688 L 272.1875 152.78125 L 272.191406 152.761719 C 272.207031 152.730469 272.222656 152.703125 272.242188 152.675781 L 272.292969 152.578125 C 272.351562 152.476562 272.417969 152.363281 272.480469 152.261719 C 273.746094 150.128906 275.835938 148.691406 278.238281 148.304688 C 279.554688 148.085938 280.921875 148.207031 282.195312 148.640625 C 283.195312 148.980469 284.101562 149.5 284.890625 150.175781 C 286.730469 151.761719 287.773438 154.054688 287.75 156.480469 L 287.75 156.65625 L 287.800781 156.828125 C 287.820312 156.882812 287.835938 156.945312 287.859375 157.003906 C 287.222656 159.671875 286.578125 162.53125 285.898438 165.554688 C 282 182.84375 276.660156 206.527344 268.769531 207.8125 L 268.699219 207.824219 L 268.628906 207.839844 C 268.566406 207.855469 268.5 207.867188 268.433594 207.878906 L 268.09375 207.949219 C 267.855469 207.988281 267.570312 208.007812 267.21875 208 L 267.09375 208.003906 C 266.761719 208.007812 266.449219 208.015625 266.25 207.941406 L 266.207031 207.925781 C 266.160156 207.902344 266.113281 207.882812 266.0625 207.863281 L 265.953125 207.820312 L 265.921875 207.816406 C 265.792969 207.765625 265.429688 207.621094 264.953125 207.371094 C 264.871094 207.328125 264.808594 207.292969 264.742188 207.253906 L 264.707031 207.234375 L 264.503906 207.121094 C 264.347656 207.035156 264.191406 206.941406 264.039062 206.84375 L 263.84375 206.714844 L 263.839844 206.710938 L 263.804688 206.6875 C 263.761719 206.660156 263.71875 206.628906 263.675781 206.601562 C 263.402344 206.410156 263.164062 206.226562 262.949219 206.039062 " fill-opacity="1" fill-rule="nonzero"/><path fill="#414f6d" d="M 289.050781 156.960938 C 289.007812 156.796875 288.949219 156.648438 288.902344 156.492188 C 288.9375 152.570312 286.480469 148.882812 282.566406 147.550781 C 281.117188 147.058594 279.554688 146.925781 278.050781 147.167969 C 275.269531 147.621094 272.902344 149.292969 271.503906 151.65625 C 271.429688 151.773438 271.355469 151.898438 271.277344 152.035156 C 271.242188 152.109375 271.191406 152.1875 271.152344 152.269531 C 268.507812 157.296875 265.382812 171.859375 262.335938 186.519531 C 266.71875 187.46875 274.023438 188.984375 280.902344 190.074219 C 284.164062 179.59375 286.710938 166.746094 289.050781 156.960938 " fill-opacity="1" fill-rule="nonzero"/><path fill="#a96644" d="M 223.589844 213.699219 C 227.164062 211.101562 235.46875 206.234375 253.421875 199.945312 C 257.054688 198.671875 259.734375 197.683594 261.882812 196.882812 C 263.5625 196.257812 265.148438 195.925781 266.601562 195.90625 L 266.660156 195.90625 L 266.714844 195.902344 C 268.550781 195.6875 270.367188 196.324219 271.707031 197.628906 L 271.71875 197.644531 L 271.734375 197.65625 C 271.953125 197.855469 272.113281 198.03125 272.210938 198.140625 L 272.257812 198.238281 L 272.328125 198.335938 C 272.492188 198.558594 272.683594 198.824219 272.828125 199.097656 C 272.917969 199.269531 273.105469 199.632812 273.292969 200.242188 C 273.300781 200.285156 273.308594 200.320312 273.316406 200.355469 L 273.328125 200.394531 L 273.359375 200.492188 C 273.648438 201.511719 273.632812 202.558594 273.308594 203.597656 C 273.058594 204.472656 272.648438 205.242188 272.085938 205.910156 L 272.070312 205.929688 L 272.054688 205.953125 C 271.941406 206.097656 271.84375 206.21875 271.765625 206.308594 L 271.757812 206.324219 C 271.75 206.328125 271.738281 206.335938 271.726562 206.34375 C 271.660156 206.390625 271.597656 206.4375 271.535156 206.480469 L 271.464844 206.539062 C 271.0625 206.898438 270.613281 207.199219 270.132812 207.433594 L 270.085938 207.457031 L 270.039062 207.488281 C 258.386719 214.636719 233.976562 222.535156 226.957031 223.300781 C 226.097656 221.273438 224.707031 217.074219 223.914062 214.6875 C 223.792969 214.3125 223.679688 213.976562 223.589844 213.699219 " fill-opacity="1" fill-rule="nonzero"/></svg>